<svg width="24" height="24" viewBox="0 0 24 24" fill="none" xmlns="http://www.w3.org/2000/svg">
<path d="M15.7466 4H15.7045C14.9165 4.00113 14.1409 4.19641 13.4463 4.56858C12.7517 4.94076 12.1595 5.47836 11.7221 6.13384C11.2846 5.47836 10.6924 4.94076 9.99783 4.56858C9.30322 4.19641 8.52761 4.00113 7.73958 4H7.69546C6.45973 3.99831 5.27327 4.48445 4.39402 5.35276C3.51476 6.22106 3.01379 7.40133 3 8.63699C3.10625 10.6121 3.80436 12.5094 5.00355 14.0824C6.95155 16.4816 9.2102 18.6109 11.72 20.4141C14.2298 18.6109 16.4885 16.4816 18.4365 14.0824C19.6356 12.5094 20.3338 10.6121 20.44 8.63699C20.4262 7.40169 19.9255 6.22173 19.0467 5.35348C18.1679 4.48523 16.982 3.99885 15.7466 4Z" stroke="#FC1111" stroke-width="1.46341" stroke-linecap="round" stroke-linejoin="round"/>
</svg>
