<svg width="35" height="35" viewBox="0 0 35 35" fill="none" xmlns="http://www.w3.org/2000/svg">
<g clip-path="url(#clip0_5_8076)">
<path d="M19.1773 21.1433C20.1696 21.4331 21.195 21.5937 22.2283 21.6213C23.2542 21.6428 24.2795 21.5593 25.2883 21.3723C26.2184 21.2065 27.134 20.9675 28.0263 20.6573C28.9723 20.3339 29.8962 19.9495 30.7923 19.5063C31.6351 19.0921 32.4257 18.5792 33.1473 17.9783C33.4678 17.7112 33.763 17.4153 34.0293 17.0943C34.3479 16.7243 34.6239 16.3198 34.8523 15.8883C35.0691 15.4672 35.2368 15.0226 35.3523 14.5633C35.4651 14.1021 35.5222 13.6291 35.5223 13.1543C35.5209 12.6826 35.4535 12.2134 35.3223 11.7603C35.1961 11.3132 34.9967 10.8902 34.7323 10.5083C34.5738 10.2797 34.3958 10.0652 34.2004 9.86727C33.9836 9.65954 33.7494 9.47085 33.5003 9.30327C33.0741 9.02544 32.6145 8.80267 32.1323 8.64028C31.2025 8.33038 30.2378 8.13722 29.2604 8.06527C27.2431 7.83622 25.2034 8.21438 23.4023 9.1513C22.6018 9.59479 21.8713 10.1541 21.2344 10.8113C20.5936 11.4694 20.0401 12.2071 19.5873 13.0063C18.5991 14.8351 18.0287 16.8604 17.9173 18.9363C17.821 19.9872 17.8799 21.0466 18.0924 22.0803C18.2142 22.6012 18.3999 23.105 18.6453 23.5803C18.8786 24.0209 19.1604 24.4341 19.4854 24.8123C19.7456 25.1248 20.0375 25.4097 20.3563 25.6623C20.7442 25.981 21.1626 26.2607 21.6054 26.4973C22.0978 26.7519 22.6143 26.9569 23.1473 27.1093C23.6867 27.255 24.2378 27.3531 24.7943 27.4023C25.2483 27.4466 25.705 27.4553 26.1603 27.4283C26.4642 27.4215 26.7546 27.3013 26.9743 27.0913C27.1903 26.8752 27.3117 26.5823 27.3117 26.2768C27.3117 25.9713 27.1903 25.6783 26.9743 25.4623C26.8675 25.3553 26.7406 25.2705 26.6009 25.2127C26.4612 25.1548 26.3115 25.1252 26.1603 25.1253C25.6137 25.1574 25.0653 25.138 24.5223 25.0673L24.8283 25.1083C24.1853 25.0234 23.556 24.8553 22.9563 24.6083L23.2313 24.7243C22.7242 24.5114 22.2466 24.2341 21.8103 23.8993L22.0433 24.0793C21.651 23.7752 21.2979 23.4235 20.9923 23.0323L21.1723 23.2653C20.894 22.9057 20.6624 22.5123 20.4833 22.0943L20.5993 22.3693C20.4041 21.8909 20.2727 21.3889 20.2083 20.8763L20.2493 21.1823C20.133 20.1117 20.1569 19.0306 20.3203 17.9663L20.2793 18.2723C20.4255 17.1485 20.7176 16.0485 21.1484 15.0003L21.0324 15.2753C21.3712 14.4646 21.8131 13.7009 22.3474 13.0033L22.1673 13.2363C22.6312 12.6378 23.1688 12.1002 23.7673 11.6363L23.5343 11.8163C24.0591 11.4121 24.633 11.0761 25.2423 10.8163L24.9674 10.9323C25.6513 10.6492 26.3694 10.4572 27.1033 10.3613L26.7973 10.4023C27.7734 10.2806 28.7613 10.2883 29.7354 10.4253L29.4294 10.3843C30.2454 10.4773 31.0458 10.6763 31.8103 10.9763L31.5353 10.8603C31.8832 11.0048 32.2115 11.1926 32.5123 11.4193L32.2793 11.2393C32.4973 11.408 32.6938 11.6028 32.8644 11.8193L32.6843 11.5863C32.8486 11.8018 32.9853 12.0369 33.0913 12.2863L32.9753 12.0113C33.1 12.3109 33.1847 12.6256 33.2273 12.9473L33.1863 12.6413C33.2347 13.0249 33.2327 13.4132 33.1803 13.7963L33.2214 13.4903C33.1621 13.916 33.0474 14.3322 32.8803 14.7283L32.9963 14.4533C32.8251 14.8489 32.6043 15.2212 32.3393 15.5613L32.5194 15.3283C32.1532 15.7921 31.7302 16.208 31.2604 16.5663L31.4934 16.3863C30.5787 17.057 29.5824 17.6084 28.5284 18.0273L28.8034 17.9113C27.6325 18.4121 26.4158 18.7979 25.1704 19.0633C24.817 19.1366 24.4613 19.1976 24.1033 19.2463L24.4093 19.2053C23.3069 19.3601 22.1889 19.3682 21.0844 19.2293L21.3904 19.2703C20.8489 19.1977 20.314 19.083 19.7904 18.9273C19.4964 18.8459 19.1821 18.8843 18.9164 19.0343C18.6508 19.1843 18.4555 19.4335 18.3734 19.7273C18.3332 19.8756 18.3228 20.0305 18.3427 20.1829C18.3626 20.3352 18.4125 20.4822 18.4894 20.6153C18.6463 20.8698 18.8911 21.058 19.1773 21.1443V21.1433Z" fill="#FDA614"/>
<path d="M15.73 18.9221C15.2064 19.0779 14.6714 19.1925 14.13 19.2651L14.436 19.2241C13.3315 19.3631 12.2134 19.355 11.111 19.2001L11.417 19.2411C10.157 19.0615 8.91986 18.747 7.72701 18.3031C7.387 18.1791 7.05033 18.0458 6.717 17.9031L6.992 18.0191C5.93798 17.6003 4.94163 17.0489 4.02701 16.3781L4.26001 16.5581C3.79013 16.1998 3.36714 15.7839 3.00101 15.3201L3.181 15.5531C2.91605 15.213 2.69529 14.8407 2.524 14.4451L2.64 14.7201C2.47299 14.3241 2.35835 13.9079 2.299 13.4821L2.34 13.7881C2.28758 13.4051 2.28556 13.0167 2.334 12.6331L2.293 12.9391C2.33559 12.6174 2.42032 12.3027 2.545 12.0031L2.429 12.2781C2.53502 12.0288 2.67174 11.7936 2.836 11.5781L2.65601 11.8111C2.82655 11.5946 3.02301 11.3998 3.241 11.2311L3.008 11.4111C3.30882 11.1844 3.63709 10.9966 3.985 10.8521L3.71001 10.9681C4.47459 10.6682 5.27499 10.4692 6.091 10.3761L5.785 10.4171C6.75905 10.2802 7.74693 10.2724 8.72301 10.3941L8.41701 10.3531C9.15095 10.4491 9.8691 10.641 10.553 10.9241L10.278 10.8081C10.8873 11.0679 11.4612 11.4039 11.986 11.8081L11.753 11.6281C12.3515 12.092 12.8891 12.6296 13.353 13.2281L13.173 12.9951C13.7072 13.6928 14.1492 14.4564 14.488 15.2671L14.372 14.9921C14.8026 16.0404 15.0947 17.1403 15.241 18.2641L15.2 17.9581C15.3635 19.0225 15.3874 20.1036 15.271 21.1741L15.312 20.8681C15.2477 21.3808 15.1162 21.8828 14.921 22.3611L15.037 22.0861C14.8579 22.5041 14.6264 22.8976 14.348 23.2571L14.528 23.0241C14.2224 23.4153 13.8693 23.767 13.477 24.0711L13.71 23.8911C13.2737 24.226 12.7961 24.5033 12.289 24.7161L12.564 24.6001C11.9643 24.8472 11.335 25.0153 10.692 25.1001L10.998 25.0591C10.455 25.1299 9.90661 25.1493 9.36 25.1171C9.13233 25.1174 8.90983 25.1851 8.7206 25.3117C8.53137 25.4383 8.38389 25.6181 8.2968 25.8285C8.2097 26.0388 8.18689 26.2702 8.23125 26.4936C8.2756 26.7169 8.38513 26.922 8.54601 27.0831C8.7678 27.29 9.0569 27.4097 9.36 27.4201C9.83239 27.4483 10.3063 27.4379 10.777 27.3891C11.3387 27.337 11.8946 27.2346 12.438 27.0831C12.9684 26.9269 13.482 26.7182 13.971 26.4601C14.406 26.2229 14.817 25.9439 15.198 25.6271C15.5151 25.3721 15.805 25.0849 16.063 24.7701C16.3824 24.3935 16.6591 23.9827 16.888 23.5451C17.1321 23.066 17.3158 22.5585 17.435 22.0341C17.555 21.4676 17.6219 20.8911 17.635 20.3121C17.6539 19.2594 17.5695 18.2074 17.383 17.1711C17.2293 16.2363 16.9714 15.3216 16.614 14.4441C16.2618 13.5505 15.7967 12.7057 15.23 11.9301C14.9292 11.5215 14.6014 11.1333 14.249 10.7681C13.8895 10.4117 13.5048 10.0815 13.098 9.78014C11.5026 8.63169 9.58679 8.01325 7.621 8.01214C6.59698 7.99785 5.57458 8.09846 4.573 8.31212C4.1521 8.39524 3.73823 8.51058 3.33501 8.65713C2.85433 8.82267 2.39718 9.04989 1.97501 9.33312C1.7352 9.49786 1.50943 9.68219 1.3 9.88415C1.10001 10.0887 0.918942 10.311 0.759003 10.5481C0.654235 10.6999 0.562895 10.8605 0.486008 11.0281C0.366553 11.2758 0.266256 11.5322 0.186005 11.7951C0.126286 12.0194 0.0828353 12.2476 0.0559998 12.4781C0.0217876 12.71 0.00307962 12.9438 0 13.1781C0.00267749 13.6528 0.0621011 14.1255 0.177002 14.5861C0.72888 16.425 1.97728 17.9755 3.65601 18.9071C4.47053 19.3934 5.32296 19.8131 6.205 20.1621C7.08244 20.5303 7.98466 20.8364 8.905 21.0781C9.90892 21.3398 10.9344 21.5101 11.969 21.5871C12.9876 21.6572 14.0108 21.6081 15.018 21.4411C15.4668 21.3704 15.9104 21.2702 16.346 21.1411C16.6333 21.0568 16.8787 20.8681 17.034 20.6121C17.1495 20.4144 17.2035 20.1868 17.1891 19.9582C17.1746 19.7297 17.0924 19.5106 16.9529 19.3291C16.8134 19.1475 16.6229 19.0116 16.4058 18.9387C16.1887 18.8659 15.9548 18.8594 15.734 18.9201L15.73 18.9221Z" fill="#FDA614"/>
</g>
<defs>
<clipPath id="clip0_5_8076">
<rect width="35" height="35" fill="white"/>
</clipPath>
</defs>
</svg>
