<svg width="610" height="606" viewBox="0 0 610 606" fill="none" xmlns="http://www.w3.org/2000/svg">
<g clip-path="url(#clip0_72_22402)">
<rect width="610" height="606" fill="#F6F7FA"/>
<path d="M-503.675 -205.509L-521.759 -194.448L-534.169 -214.052L-513.578 -227.665L-503.675 -205.509ZM-493.146 -181.947L-508.721 -173.858L-520.311 -192.165L-502.564 -203.023L-493.146 -181.947ZM-446.407 -219.993L-424.151 -175.934L-478.942 -156.787L-500.094 -204.12L-446.407 -219.993ZM-414.858 -120.022C-436.731 -124.903 -456.173 -129.248 -467.801 -131.86L-477.835 -154.312L-422.996 -173.475C-422.136 -167.761 -419.011 -147.036 -414.858 -120.022ZM-403.165 -45.2237L-418.534 -42.9344L-423.783 -76.4112H-423.785L-430.292 -117.93C-425.058 -116.763 -419.592 -115.54 -413.975 -114.287C-410.732 -93.2381 -406.951 -68.9677 -403.165 -45.2237ZM-400.774 -181.241L-393.637 -115.284C-395.997 -115.811 -398.349 -116.335 -400.686 -116.857C-405.909 -150.725 -409.719 -176.076 -409.826 -176.797C-409.887 -177.2 -409.992 -177.59 -410.122 -177.973L-400.774 -181.241ZM-365.266 -193.648L-342.017 -135.98L-345.901 -104.637C-360.055 -107.794 -375.565 -111.252 -390.851 -114.664L-398.151 -182.157L-365.266 -193.648ZM-339.094 -202.794L-294.31 -93.1395C-302.809 -95.0323 -321.213 -99.1338 -343.252 -104.046L-339.292 -135.993C-339.265 -136.221 -339.294 -136.452 -339.379 -136.665L-362.711 -194.542L-339.094 -202.794ZM-342.887 -226.379L-315.982 -237.821L-306.331 -217.106L-335.006 -207.084L-342.887 -226.379ZM-281.963 -164.802L-312.925 -153.015L-333.984 -204.58L-305.183 -214.644L-281.963 -164.802ZM-260.984 -230.089L-250.463 -204.391L-290.33 -189.484C-290.375 -189.468 -290.404 -189.433 -290.446 -189.412L-302.619 -215.54L-260.984 -230.089ZM-281.481 -243.97L-251.106 -254.384L-244.965 -238.549L-274.418 -228.259L-281.481 -243.97ZM-223.841 -243.069L-213.625 -218.167L-247.93 -205.339L-258.429 -230.982L-223.841 -243.069ZM-198.251 -252.012L-177.391 -204.618L-201.394 -195.478L-221.283 -243.963L-198.251 -252.012ZM-154.487 -238.614L-142.926 -215.719L-172.272 -206.407L-180.76 -225.689L-154.487 -238.614ZM-118.455 -183.06L-153.824 -164.49L-171.178 -203.921L-141.525 -213.329L-118.455 -183.06ZM-113.314 -240.558L-86.579 -207.144L-83.0938 -201.627L-116.05 -184.323L-139.25 -214.765L-113.314 -240.558ZM-64.5445 -172.259L-95.9568 -157.958L-114.401 -182.159L-81.6593 -199.354L-64.5445 -172.259ZM-42.51 -229.986L21.8903 -166.103L33.8298 -112.401L18.1898 -104.662L11.6586 -115.878C11.6563 -115.88 11.6563 -115.884 11.6563 -115.884C11.6541 -115.887 11.6519 -115.889 11.6496 -115.891L-5.9292 -146.073C-5.9292 -146.073 -5.9292 -146.073 -5.9292 -146.077C-5.93146 -146.077 -5.9314 -146.077 -5.9314 -146.077L-12.9064 -158.052C-12.9064 -158.052 -12.9064 -158.055 -12.9087 -158.057C-12.9087 -158.059 -12.9109 -158.059 -12.9109 -158.061L-21.2352 -172.35C-21.6073 -172.991 -22.4299 -173.208 -23.0709 -172.845L-51.5134 -156.675L-79.3844 -200.801L-42.51 -229.986ZM70.5451 -127.53C67.0934 -103.455 62.1312 -69.4986 62.0572 -68.9856C62.0348 -68.8378 62.037 -68.6899 62.0639 -68.5421L66.7819 -43.1046L34.3969 -24.5888L24.219 -36.7744L13.6108 -53.5677L36.6337 -111.16C36.6472 -111.194 36.6427 -111.23 36.6539 -111.266C36.6876 -111.378 36.7122 -111.492 36.7167 -111.611C36.7189 -111.673 36.7122 -111.734 36.7077 -111.796C36.701 -111.85 36.71 -111.902 36.6987 -111.953L33.6371 -125.723L70.5451 -127.53ZM76.3031 -149.104L105.981 -141.414L108.022 -129.517C108.099 -129.074 108.392 -128.697 108.805 -128.514L145.634 -112.146C131.326 -79.48 120.339 -53.4378 119.144 -47.8714C119.023 -47.3069 118.873 -46.6214 118.702 -45.8688L80.1851 -50.463C80.1559 -50.4653 80.1268 -50.4585 80.0955 -50.4585C80.0327 -50.463 79.9699 -50.4585 79.9049 -50.4518C79.7951 -50.4406 79.6898 -50.416 79.5844 -50.3802C79.553 -50.3667 79.5194 -50.3712 79.4858 -50.3577C79.4678 -50.351 79.4544 -50.3331 79.4365 -50.3241C79.4095 -50.3107 79.3804 -50.3085 79.3558 -50.2928L69.2676 -44.527L64.7647 -68.8154C65.5111 -73.927 74.8216 -137.677 76.3031 -149.104ZM76.3031 -188.83C78.1948 -191.953 86.9607 -210.695 89.2648 -215.632C100.31 -210.912 112.041 -205.899 123.987 -200.796L106.261 -144.133L76.5317 -151.836C76.5452 -153.835 76.3905 -157.439 76.1955 -161.816C75.81 -170.561 75.0928 -186.836 76.3031 -188.83ZM175.278 -178.891C165.557 -157.219 155.552 -134.754 146.719 -114.619L110.564 -130.689L108.554 -142.411L126.487 -199.728C142.835 -192.746 159.501 -185.627 175.278 -178.891ZM180.245 -176.772C219.441 -160.035 252.091 -146.102 258.685 -143.286C249.827 -121.731 239.768 -96.9901 231.847 -76.7853L208.779 -87.0378L222.622 -114.592C222.958 -115.26 222.689 -116.07 222.021 -116.404C221.36 -116.74 220.542 -116.469 220.206 -115.804L206.307 -88.1353L151.654 -112.426C160.268 -132.055 170.175 -154.316 180.245 -176.772ZM202.107 -225.291L257.694 -201.82L249.083 -182.816H249.081L236.744 -155.591C222.398 -161.713 202.867 -170.05 181.35 -179.236C188.338 -194.813 195.383 -210.433 202.107 -225.291ZM215.313 -254.397L343.515 -211.221L356.62 -138.116L274.112 -173.54C278.911 -185.105 282.057 -192.625 282.192 -192.947C282.481 -193.633 282.158 -194.423 281.472 -194.712L203.221 -227.75C207.419 -237.024 211.478 -245.966 215.313 -254.397ZM510.644 -135.299L504.577 -125.192C504.559 -125.163 504.559 -125.127 504.541 -125.098C504.526 -125.068 504.496 -125.053 504.483 -125.021L495.686 -107.664L416.706 -138.983C416.047 -139.248 415.3 -138.954 414.989 -138.32L402.899 -113.519L362.447 -135.377C362.49 -135.661 362.501 -135.946 362.45 -136.23L349.45 -208.766L510.644 -135.299ZM515.053 -132.145C523.427 -123.586 533.739 -112.878 542.225 -103.813L510.548 -124.634L515.053 -132.145ZM536.55 -167.951L651.996 -99.9693L634.859 -42.9299L551.582 -97.6621C540.667 -109.745 523.402 -127.481 516.492 -134.539L536.55 -167.951ZM564.439 -166.721L563.647 -158.265L546.521 -168.35L564.439 -166.721ZM489.957 -201.659L497.27 -226.601L569.517 -221.173L564.687 -169.412L541.073 -171.557L489.957 -201.659ZM570.416 -201.668L597.37 -198.825L596.539 -182.352C596.501 -181.606 597.075 -180.972 597.821 -180.934C597.843 -180.934 597.868 -180.934 597.888 -180.934C598.605 -180.934 599.202 -181.494 599.24 -182.215L600.062 -198.54L622.254 -196.2L619.741 -164.41L567.381 -169.167L570.416 -201.668ZM572.214 -220.97L623.87 -216.705L623.047 -206.273V-206.271C623.047 -206.268 623.047 -206.268 623.047 -206.266L622.464 -198.894L599.749 -201.289C599.52 -201.517 599.215 -201.674 598.868 -201.692C598.572 -201.717 598.307 -201.618 598.074 -201.466L570.665 -204.358L572.214 -220.97ZM574.814 -248.817C592.332 -245.681 609.855 -242.664 625.721 -240.137L624.085 -219.399L572.467 -223.66L574.814 -248.817ZM626.671 -217.829C626.671 -217.829 626.671 -217.829 626.671 -217.831L628.402 -239.714C642.484 -237.494 655.152 -235.689 665.18 -234.571L662.333 -204.698L625.851 -207.415L626.671 -217.829ZM668.513 -212.545L691.914 -211.432L690.904 -157.943L663.55 -160.427L668.513 -212.545ZM670.559 -234.015C673.224 -233.764 675.645 -233.574 677.774 -233.46C681.786 -233.243 686.992 -232.936 693.127 -232.557L692.017 -214.131L668.77 -215.235L670.559 -234.015ZM733.065 -151.397L730.945 -93.2806L692.493 -98.6969L693.553 -154.988L733.065 -151.397ZM694.64 -212.673L695.826 -232.389C718.001 -231.007 750.971 -228.794 784.352 -226.509L773.203 -150.463L693.604 -157.696L694.64 -212.673ZM789.762 -226.14C804.562 -225.125 819.323 -224.103 833.148 -223.145L821.708 -146.055L778.598 -149.973L789.762 -226.14ZM835.851 -222.956C865.113 -220.923 889.813 -219.184 901.107 -218.389C901.071 -192.242 900.847 -163.397 900.215 -138.918L866.781 -141.958C866.568 -142.133 866.315 -142.263 866.017 -142.281C865.741 -142.312 865.494 -142.225 865.27 -142.095L824.393 -145.811L835.851 -222.956ZM839.414 -246.956L901.094 -240.706C901.107 -235.29 901.114 -229.632 901.112 -223.805C889.705 -224.61 865.412 -226.319 836.646 -228.317L839.414 -246.956ZM920.456 39.9322L898.081 38.9286C899.8 22.1107 901.463 5.79681 903.01 -9.42624L920.456 39.9322ZM949.616 -19.6586L954.901 -0.663361L915.225 8.90594L905.103 -19.7325L949.616 -19.6586ZM984.435 -18.151L998.771 43.44L969.607 42.1341L952.445 -19.5757L984.435 -18.151ZM1013.87 -16.8384C1013.88 -16.8317 1013.87 -16.8249 1013.87 -16.8182L1029.11 44.7997L1001.57 43.5677L987.241 -18.0256L1013.87 -16.8384ZM1036.4 -15.8349L1054.01 45.9152L1031.92 44.9274L1016.69 -16.713L1036.4 -15.8349ZM1053.46 -15.0755L1072.29 46.735L1056.86 46.0451L1039.24 -15.7094L1053.46 -15.0755ZM1098.15 61.416C1062.27 73.7965 1024.39 86.8311 985.729 100.101L973.415 55.825L1098.15 61.416ZM1137.68 141.973L1124.73 153.254L1111.99 137.372L1088.68 78.9754C1098.4 75.6221 1107.25 72.569 1115.08 69.8675C1120.75 88.408 1134.36 131.481 1137.68 141.973ZM1105.4 170.105C1099.94 162.471 1096.41 157.03 1095.79 154.916C1092.66 144.292 1075.77 99.9933 1070.16 85.3549C1075.7 83.4487 1081.03 81.6118 1086.12 79.8579L1109.55 138.559C1109.6 138.685 1109.67 138.801 1109.75 138.904L1122.69 155.032L1105.4 170.105ZM1119.56 193.601L1107.88 203.024L1094.97 186.368L1106.56 176.263C1110.36 181.458 1114.77 187.329 1119.56 193.601ZM1130.15 207.318L1118.94 217.307L1109.54 205.161L1121.2 195.747C1124.08 199.496 1127.08 203.372 1130.15 207.318ZM1075.47 256.065L1065.17 240.952L1107.43 206.859L1116.92 219.108L1075.47 256.065ZM1096.31 289.641L1032.11 322.488L1017.61 302.724L1013.09 289.69L1074.79 259.811L1096.31 289.641ZM1111.6 310.833L1081.17 332.436L1064.79 308.795L1097.9 291.847L1111.6 310.833ZM1129.73 335.959C1120.13 343.145 1109.8 350.737 1099.19 358.422L1082.71 334.656L1113.18 313.026L1129.73 335.959ZM1119.13 391.937L1095.26 411.73L1075.52 381.94C1083.7 376.125 1091.94 370.225 1100.02 364.374L1119.13 391.937ZM1136.32 416.747L1112 436.995L1096.76 413.994L1120.67 394.166L1136.32 416.747ZM1125.83 467.658L1033.42 525.123L1026.99 507.81L1109.28 442.677L1125.83 467.658ZM1037.85 544.826C1037.89 544.94 1037.99 545.003 1038.06 545.097L1003.05 558.819L990.765 523.512L1024.2 509.949C1024.32 509.9 1024.43 509.835 1024.53 509.757L1024.76 509.573L1037.85 544.826ZM1096.53 525.087L1114.7 579.716L1021.35 611.383L1003.94 561.373L1096.53 525.087ZM1118.62 516.43L1139.34 571.361L1117.26 578.847L1099.05 524.099L1118.62 516.43ZM1092.48 651.622L1070.66 659.955L1053.1 606.316L1074.08 599.197L1092.48 651.622ZM1095.65 660.65L1073.64 669.034L1071.51 662.527L1093.38 654.172L1095.65 660.65ZM1106.64 693.6L1084.29 701.588L1074.48 671.608L1096.52 663.21L1106.64 693.6ZM1130.9 766.552L1108.85 776.594L1085.13 704.157L1107.49 696.165L1130.9 766.552ZM1078.76 786.692L1077.12 785.438C1076.78 785.178 1076.41 784.961 1076.03 784.77L1054.14 715.243L1082.59 705.069L1106.33 777.587L1078.76 786.692ZM1072.89 784.051L1056.76 784.363L1035.63 721.862L1051.59 716.152L1072.97 784.056C1072.95 784.058 1072.92 784.051 1072.89 784.051ZM1045.73 784.575L1026.11 725.267L1033.08 722.772L1053.92 784.419L1045.73 784.575ZM1033.18 784.82L1014.66 729.359L1023.56 726.176L1042.9 784.631L1033.18 784.82ZM983.196 785.785L982.207 770.69L1021 756.864L1030.35 784.873L983.196 785.785ZM980.309 741.644L1012.11 730.271L1020.14 754.302L982.024 767.885L980.309 741.644ZM978.128 708.306L1001.77 699.301L1011.26 727.708L980.123 738.841L978.128 708.306ZM977.483 698.447L1019.44 682.42L1021.61 688.851L977.942 705.486L977.483 698.447ZM975.602 669.701L1010.99 657.42L1018.57 679.858L977.299 695.625L975.602 669.701ZM973.226 633.411L999.82 624.391L1010.12 654.859L975.418 666.904L973.226 633.411ZM904.124 840.504C889.634 844.124 871.118 845.183 850.841 844.37C850.767 840.799 850.652 836.006 850.498 830.574L971.803 818.679L972.42 828.132C949.883 831.069 925.862 835.072 904.124 840.504ZM849.805 810.916L851.816 811.355C852.006 811.397 852.199 811.417 852.394 811.417C852.508 811.417 852.623 811.411 852.735 811.395L970.346 796.45L971.449 813.286L850.332 825.162C850.186 820.601 850.014 815.767 849.805 810.916ZM848.55 788.762L882.381 776.664L890.633 801.134L852.515 805.976L849.552 805.329C849.272 799.487 848.938 793.804 848.55 788.762ZM846.849 773.967C846.575 772.614 845.062 767.737 842.523 759.96L872.851 748.408L881.516 774.103L848.326 785.975C847.896 780.971 847.409 776.767 846.849 773.967ZM670.129 796.591C665.115 791.376 659.762 781.24 653.608 768.033L662.56 769.991C668.08 784.428 671.287 792.928 671.368 793.137C671.686 793.983 672.41 794.617 673.298 794.819L836.35 831.824C836.548 831.869 836.749 831.891 836.951 831.891C837.038 831.891 837.126 831.886 837.213 831.878L845.094 831.107C845.242 836.181 845.349 840.683 845.423 844.108C775.902 840.262 688.492 815.676 670.129 796.591ZM644.983 748.989C628.559 712.25 606.221 662.345 568.798 616.589C574.56 611.367 581.107 606.296 588.28 601.549C603.149 626.4 616.435 651.531 624.831 672.831C639.409 709.811 651.889 742.136 660.249 763.952L650.779 761.882C648.923 757.801 646.998 753.495 644.983 748.989ZM613.882 753.818L529.187 698.696L544.861 649.515C547.239 642.062 552.23 634.108 559.196 626.239C595.044 670.445 616.695 718.834 632.64 754.499C633.216 755.785 633.776 757.039 634.335 758.287L613.882 753.818ZM573.106 856.231L487.543 833L527.51 704.052L610.675 758.177L573.106 856.231ZM482.323 831.584L469.027 827.973L509.804 700.067L522.476 702.029L482.323 831.584ZM389.281 806.321L400.418 683.128L507.101 699.646L466.418 827.265L389.281 806.321ZM345.429 794.418L359.814 737.092L392.506 740.613L386.631 805.602L345.429 794.418ZM340.213 793L276.936 775.821L278.987 736.55L291.554 732.921C292.027 732.782 292.388 732.401 292.498 731.92L298.903 703.68L360.845 710.774L340.213 793ZM323.323 860.299L260.774 844.045L274.863 789.257L336.923 806.106L323.323 860.299ZM211.998 758.19L225.645 695.289L296.2 703.371L290.037 730.544L277.31 734.222C276.757 734.381 276.367 734.874 276.335 735.45L274.267 775.096L211.998 758.19ZM197.564 760.97L153.091 747.275L170.334 681.865L212.354 692.796L197.564 760.97ZM182.753 829.234L129.858 815.667L132.921 743.89L196.988 763.62L182.753 829.234ZM99.6757 730.824L113.184 666.996L167.716 681.181L150.505 746.477L99.6757 730.824ZM221.842 649.06L212.926 690.166L169.715 678.919C169.713 678.917 169.713 678.917 169.711 678.917H169.706L113.745 664.35L121.19 629.171L221.842 649.06ZM98.1852 544.456L241.382 558.996L222.987 643.78L121.215 623.667L98.1852 544.456ZM78.6049 477.099C78.2822 475.988 77.6771 474.976 76.85 474.165L74.9449 472.297L76.8926 369.203C89.7444 372.989 101.637 381.915 114.188 391.404C126.652 400.828 139.542 410.569 154.772 416.344C160.916 418.671 166.916 420.575 172.719 422.421C196.232 429.885 216.543 436.332 240.31 467.217C244.782 473.023 250.827 477.729 258.142 481.739L252.279 508.764L141.409 492.58C141.057 492.529 140.692 492.618 140.403 492.838C140.114 493.055 139.923 493.378 139.876 493.734L132.883 545.261L97.3716 541.656L78.6049 477.099ZM10.5088 291.979L9.89911 267.937L76.3591 264.201L74.4361 290.803L10.5088 291.979ZM72.5646 316.675L11.1766 318.207L10.5782 294.676L74.2411 293.489L72.5646 316.675ZM71.7689 354.159C47.4168 349.762 -3.45477 346.702 -34.7975 345.146C-35.5215 339.559 -36.6668 330.72 -38.0789 319.865L9.82965 320.942H9.85876C9.86328 320.942 9.87 320.94 9.87445 320.94C9.88116 320.94 9.88794 320.942 9.8924 320.942L72.4256 319.381L71.7689 354.159ZM69.6351 467.087L22.1077 420.452C21.4554 419.809 20.6777 419.31 19.826 418.976C19.3598 418.795 -3.70129 409.931 -39.278 400.436L-34.6945 358.689C-2.41925 360.308 49.8867 363.473 71.5089 367.844L69.6351 467.087ZM-44.5653 399.047C-75.9327 390.911 -116.055 382.619 -158.768 379.122L-185.872 322.092L-179.243 236.804C-130.697 287.746 -67.3798 354.309 -66.3712 355.371C-65.1564 356.648 -63.4888 357.401 -61.7271 357.466C-61.4246 357.479 -52.8761 357.808 -40.105 358.422L-44.5653 399.047ZM-193.177 184.41L-127.829 177.5C-127.708 177.535 -127.589 177.569 -127.459 177.569C-127.416 177.569 -127.369 177.567 -127.324 177.562C-127.129 177.544 -126.952 177.482 -126.793 177.39L-63.4351 170.692C-61.651 183.035 -58.8045 204.001 -55.5747 228.231L-181.621 214.722C-184.017 212.208 -186.352 209.76 -188.62 207.381C-189.701 201.844 -191.274 193.863 -193.177 184.41ZM-197.523 297.573L-226.091 237.462C-226.721 236.136 -227.765 235.054 -229.065 234.373C-323.873 184.829 -428.651 126.598 -436.016 116.377C-439.069 111.193 -446.636 84.0198 -454.48 55.2515C-431.514 50.4781 -408.753 45.8973 -388.496 42.0759C-386.848 50.8903 -385.479 57.5341 -384.513 61.1248C-376.581 90.5629 -352.903 122.055 -328.213 136.004C-316.632 142.547 -296.496 151.164 -277.021 159.499C-260.211 166.694 -237.188 176.545 -233.879 179.643C-231.634 181.888 -214.398 199.924 -191.778 223.652L-197.523 297.573ZM-470.275 -2.26048L-447.465 -6.22528L-439.495 38.344C-445.638 39.5962 -451.836 40.873 -458.044 42.1655C-461.924 27.9011 -466.052 12.7587 -470.275 -2.26048ZM-478.635 -31.2461L-452.631 -35.1213L-447.938 -8.88416L-471.01 -4.87454C-473.534 -13.8054 -476.087 -22.6691 -478.635 -31.2461ZM-488.611 -63.1145L-458.622 -68.6317L-453.107 -37.7824L-479.418 -33.8624C-482.511 -44.191 -485.595 -54.0762 -488.611 -63.1145ZM-496.443 -84.9008L-479.944 -88.0749L-475.226 -68.3226L-489.486 -65.7018C-491.859 -72.713 -494.186 -79.1731 -496.443 -84.9008ZM-459.098 -71.2905L-472.564 -68.8131L-477.286 -88.5856L-462.693 -91.3923L-459.098 -71.2905ZM-458.822 -85.1113L-460.274 -93.2269C-460.274 -93.2291 -460.274 -93.2314 -460.274 -93.2336C-460.274 -93.2358 -460.277 -93.2381 -460.277 -93.2381L-466.124 -125.947C-457.755 -124.069 -446.266 -121.498 -433.13 -118.564L-428.725 -90.4762L-458.822 -85.1113ZM-456.439 -71.7789L-458.349 -82.4547L-428.306 -87.8061L-426.652 -77.2579L-456.439 -71.7789ZM-450.433 -38.1811L-455.964 -69.12L-426.233 -74.5878L-421.208 -42.5357L-450.433 -38.1811ZM-416.781 -14.3027L-445.278 -9.34782L-449.955 -35.52L-420.789 -39.8656L-416.781 -14.3027ZM-409.47 32.3363C-418.35 34.0746 -427.526 35.9091 -436.846 37.8042L-444.802 -6.68895L-416.364 -11.6326L-409.47 32.3363ZM-390.903 28.7702C-396.065 29.7402 -401.381 30.7594 -406.814 31.8189L-418.117 -40.2643L-402.739 -42.5558C-398.528 -16.1955 -394.339 9.30466 -390.903 28.7702ZM-396.168 -87.7008C-397.423 -95.7581 -398.642 -103.616 -399.801 -111.122C-390.726 -109.097 -381.469 -107.032 -372.374 -105.005L-370.177 -86.4038L-396.168 -87.7008ZM-369.545 -83.6665L-360.226 -62.5814L-390.177 -49.6589C-392.057 -61.4771 -393.933 -73.4029 -395.742 -84.9747L-369.545 -83.6665ZM-339.843 -71.3757L-345.381 -86.8765L-343.92 -98.6589C-325.167 -94.4768 -309.096 -90.8973 -299.539 -88.767L-339.843 -71.3757ZM-260.699 -12.8378L-283.742 -11.2832L-310.793 -80.9718L-295.05 -87.7657C-293.71 -87.4678 -292.614 -87.2237 -291.816 -87.0445C-288.776 -79.7264 -274.853 -46.216 -260.699 -12.8378ZM-256.663 -110.493L-288.691 -93.6749L-311.903 -150.51L-280.82 -162.347L-256.663 -110.493ZM-240.686 -180.517L-279.43 -165.767L-289.312 -186.98L-249.437 -201.889L-240.686 -180.517ZM-238.16 -181.481L-246.906 -202.837L-212.598 -215.665L-203.922 -194.517L-238.16 -181.481ZM-194.844 -172.388L-228.532 -157.963L-237.136 -178.979L-202.895 -192.018L-194.844 -172.388ZM-176.578 -152.542L-182.504 -149.431L-200.369 -192.979L-195.143 -194.97L-176.578 -152.542ZM-174.179 -153.801L-192.614 -195.931L-176.304 -202.142L-158.62 -161.97L-174.179 -153.801ZM-147.46 -136.611L-163.607 -129.64L-173.099 -151.332L-157.537 -159.506L-147.46 -136.611ZM-147.931 -151.1L-152.739 -162.026L-116.806 -180.896L-107.343 -168.477L-147.931 -151.1ZM-142.478 -138.715L-146.842 -148.629L-105.655 -166.264L-98.4962 -156.872L-142.478 -138.715ZM-94.0943 -148.745L-138.699 -130.126L-141.391 -136.242L-97.0214 -154.558L-94.0943 -148.745ZM-86.6597 -139.94L-94.5605 -155.627L-63.0899 -169.954L-53.8937 -155.391L-86.6597 -139.94ZM-34.9186 -125.351L-71.0354 -108.927L-85.4449 -137.53L-52.4413 -153.093L-34.9186 -125.351ZM-42.7341 -142.776L-50.0722 -154.39L-22.8983 -169.835L-15.9434 -157.893L-42.7341 -142.776ZM-35.2234 -130.884L-41.2907 -140.489L-14.5829 -155.559L-8.95721 -145.9L-35.2234 -130.884ZM-27.7755 -119.092L-33.78 -128.599L-7.59894 -143.566L-1.43976 -132.996L-27.7755 -119.092ZM-16.311 -100.941L-26.3275 -116.801L-0.0792847 -130.657L8.64624 -115.678L-16.311 -100.941ZM-9.88513 -90.7696L-14.8676 -98.6544L10.0067 -113.342L15.7625 -103.461L-9.88513 -90.7696ZM10.7755 -97.9779L32.8145 -108.884L21.182 -79.7869L10.7755 -97.9779ZM-8.435 -88.4736L8.34814 -96.7773L19.9022 -76.5837L11.8289 -56.3878L-8.435 -88.4736ZM6.1225 -32.9507L-6.85712 -56.8045L4.93005 -62.2544L20.9937 -36.8214L6.1225 -32.9507ZM56.864 6.52481C52.9417 6.62338 25.0236 7.33792 -14.2288 8.39297L-27.1075 -21.5065L22.6344 -34.456L56.864 6.52481ZM69.4222 -2.43294L58.8453 4.6813L36.1564 -22.4832L51.124 -31.04L69.4222 -2.43294ZM84.7664 -12.7549L71.6658 -3.94048L53.4729 -32.384L67.8152 -40.5824L84.7664 -12.7549ZM93.1355 -15.7184L87.2049 -13.9488L70.1619 -41.9241L79.3894 -47.1994L93.1355 -15.7184ZM112.956 -21.632L95.7444 -16.4957L82.209 -47.4995L118.097 -43.2189C116.918 -38.1049 115.107 -30.5203 112.956 -21.632ZM170.993 -18.8813L140.002 14.264L115.287 -8.32414C118.615 -21.9837 121.538 -34.0998 123.25 -41.5008L170.993 -18.8813ZM172.629 -21.0989L123.869 -44.2C124.088 -45.1654 124.286 -46.048 124.433 -46.7379C125.53 -51.8563 136.106 -76.9443 150.57 -109.951L205.092 -85.7184L172.629 -21.0989ZM217.89 -37.9437C216.052 -26.551 216.043 -7.05408 216.099 -0.504303L175.072 -19.9408L207.565 -84.6208L230.861 -74.2675C223.722 -55.9891 218.522 -41.8525 217.89 -37.9437ZM321.799 -33.8512L308.402 5.00607L218.812 0.360321C218.76 -4.96863 218.688 -25.9171 220.56 -37.5136C221.163 -41.2499 226.282 -55.1312 233.333 -73.1677L321.799 -33.8512ZM339.052 -83.8973L322.682 -36.4137L234.319 -75.6854C239.84 -89.7504 246.418 -106.078 252.904 -122.002L339.052 -83.8973ZM380.878 -68.3517L344.896 -84.2669L361.616 -132.763L401.713 -111.089L380.878 -68.3517ZM458.388 -34.0685L383.355 -67.2563L416.871 -136.011L494.46 -105.244L458.388 -34.0685ZM533.894 -74.5968L520.822 -49.3184L482.751 -70.184L495.677 -95.6886L533.894 -74.5968ZM535.133 -76.9981L496.901 -98.1011L507.939 -119.881L544.787 -95.6618L535.133 -76.9981ZM570.392 -44.6995L546.355 -33.2464L531.191 -63.4819L547.057 -94.1699L556.477 -87.9763C557.618 -86.5786 558.335 -85.5862 558.497 -85.1315C558.97 -83.6912 563.932 -66.7837 570.392 -44.6995ZM582.022 -14.5334C572.584 -46.8589 563.49 -77.9434 561.455 -84.7059L632.217 -38.1968L582.022 -14.5334ZM614.089 26.201L593.641 25.2848C590.274 13.7399 586.52 0.875519 582.788 -11.9082L632.593 -35.3878L614.089 26.201ZM647.612 -9.47328C647.628 -9.4352 647.666 -9.41727 647.684 -9.38367C647.729 -9.30078 647.753 -9.21342 647.816 -9.14174C647.993 -8.93118 659.816 5.36673 668.988 28.6605L619.656 26.4496L637.47 -32.8298L647.612 -9.47328ZM764.137 -88.6035L733.635 -92.8998L735.759 -151.153L772.811 -147.784L764.137 -88.6035ZM805.153 -87.3402L769.357 -86.937L778.206 -147.294L821.098 -143.396L805.153 -87.3402ZM861.507 -87.9763L807.971 -87.3738L823.828 -143.148L864.502 -139.452L861.507 -87.9763ZM897.42 -88.384L864.217 -88.0077L867.193 -139.207L900.143 -136.212C899.666 -118.85 898.971 -103.88 897.978 -93.9459C897.81 -92.2614 897.622 -90.391 897.42 -88.384ZM942.067 101.069L946.404 113.588C927.104 120.198 907.717 126.833 888.376 133.441C891.099 107.072 893.953 79.2935 896.705 52.3888L925.313 53.6701L942.067 101.069ZM926.284 40.192L916.131 11.4662L955.623 1.94177L966.767 42.0064L926.284 40.192ZM951.517 111.834L947.171 99.2855L931.141 53.9322L970.575 55.6996L983.167 100.981C972.666 104.583 962.105 108.205 951.517 111.834ZM994.302 141.01L967.327 157.496L955.941 124.618C966.469 121.007 976.768 117.474 986.798 114.029L994.302 141.01ZM1025.29 130.372L996.796 139.899L989.359 113.151C998.531 109.999 1007.47 106.931 1016.13 103.951L1025.29 130.372ZM1062.14 138.651L1066.96 148.554L1038.25 159.062L1028.3 130.78C1028.3 130.78 1028.3 130.78 1028.3 130.778L1018.69 103.073C1028.51 99.6976 1037.96 96.4451 1047 93.3338L1062.14 138.651ZM1069.51 147.625L1064.64 137.632L1049.55 92.4535C1055.78 90.3098 1061.81 88.2355 1067.61 86.2374C1071.63 96.7565 1081.71 123.175 1088.09 140.824L1069.51 147.625ZM1077.24 163.47L1070.7 150.066L1089.01 143.366C1090.72 148.14 1092.08 152.089 1092.88 154.652L1077.24 163.47ZM1091.65 182.087L1078.9 165.634L1093.84 157.219C1095.27 160.131 1098.66 165.267 1103.38 171.866L1091.65 182.087ZM1052.94 222.998L1092.93 188.146L1105.77 204.722L1063.64 238.712L1052.94 222.998ZM1018.6 241.575L1047.45 227.649C1047.67 227.546 1047.88 227.411 1048.06 227.254L1050.89 224.786L1073.22 257.566L1034.31 276.409L1018.6 241.575ZM1012.21 287.118L999.607 250.734L1016.16 242.749L1031.88 277.589L1012.21 287.118ZM965.113 326.292L961.141 314.852L1008.2 292.062L1012.28 303.878L965.113 326.292ZM972.648 347.988L966.005 328.861L1013.51 306.286L1027.1 324.804L972.648 347.988ZM1068.1 380.672C1042.15 399.033 1017.28 416.136 1000.23 427.448L982.602 376.662L982.833 376.566C983.523 376.279 983.85 375.486 983.563 374.799C983.279 374.109 982.481 373.782 981.797 374.071L981.712 374.104L973.533 350.546L1028.74 327.04L1068.1 380.672ZM1053.71 351.933L1033.73 324.694L1062.36 310.036L1078.97 334.002L1053.71 351.933ZM1055.31 354.11L1080.51 336.221L1097 360.008C1088.9 365.861 1080.67 371.75 1072.51 377.545L1055.31 354.11ZM1015.88 477.554L1001.98 432.734C1019.35 421.256 1044.74 403.762 1071.11 385.069L1091.08 415.197L1015.88 477.554ZM1016.78 480.312L1092.58 417.464L1107.78 440.42L1026 505.144L1016.78 480.312ZM980.95 495.313L1014.4 481.66L1023.78 506.907L1023.01 507.519L989.875 520.959L980.95 495.313ZM954.632 577.794L942.682 543.021L988.257 524.529L1000.53 559.807L954.632 577.794ZM955.513 580.35L981.488 570.172L998.087 619.27L971.94 628.141L955.513 580.35ZM931.701 759.028L967.072 746.379L969.994 791.049L942.953 794.485L931.701 759.028ZM929.153 759.938L940.227 794.83L893.368 800.786L884.927 775.754L929.153 759.938ZM919.818 730.515L928.337 757.362L884.062 773.194L875.379 747.443L919.818 730.515ZM916.976 721.562L919 727.937L874.514 744.883L872.393 738.593L916.976 721.562ZM871.53 736.03L862.413 708.996L876.643 704.056L885.335 730.757L871.53 736.03ZM839.609 751.119L869.867 739.56L871.985 745.844L841.68 757.388C841.044 755.444 840.353 753.359 839.609 751.119ZM815.201 797.821L769.404 787.812L837.485 761.877C839.869 769.189 841.293 773.767 841.544 775.029C842.122 777.907 842.622 782.434 843.057 787.859L815.201 797.821ZM820.179 798.909L843.269 790.65C843.572 794.821 843.839 799.4 844.072 804.133L820.179 798.909ZM844.334 809.719C844.572 815.142 844.769 820.595 844.93 825.693L837.121 826.459L675.911 789.871C674.909 787.219 672.469 780.781 668.874 771.368L844.334 809.719ZM738.514 721.804L759.845 785.72L666.567 765.332C664.832 760.798 662.898 755.758 660.778 750.247L738.514 721.804ZM699.956 606.155L709.854 635.931C709.854 635.933 709.854 635.933 709.854 635.933L737.658 719.239L659.805 747.723C651.859 727.075 641.531 700.454 629.863 670.851C626.06 661.198 621.187 650.637 615.572 639.594L699.956 606.155ZM605.762 591.284C610.126 589.026 620.499 584.599 635.108 578.65L648.486 623.295C648.52 623.41 648.619 623.47 648.679 623.569L614.333 637.181C607.914 624.709 600.591 611.67 592.816 598.653C596.969 596.077 601.284 593.6 605.762 591.284ZM571.766 565.1L578.272 544.685L667.226 507.72L682.599 553.963C664.541 561.039 648.464 567.419 635.428 572.705C635.206 572.651 634.971 572.633 634.738 572.703C634.411 572.801 634.16 573.021 633.992 573.287C618.674 579.515 607.784 584.156 603.279 586.485C598.679 588.86 594.266 591.384 590.021 594.007C584.095 584.228 577.945 574.51 571.766 565.1ZM569.645 571.753C574.995 579.96 580.314 588.389 585.469 596.886C578.035 601.771 571.266 606.981 565.299 612.362C563.251 609.934 561.148 607.521 559.01 605.122L569.645 571.753ZM540.201 604.701C543.596 608.227 546.873 611.802 550.056 615.415L539.712 647.864C539.712 647.87 539.708 647.875 539.705 647.882C539.705 647.884 539.705 647.884 539.705 647.886L524.113 696.814L511.462 694.857L540.201 604.701ZM375.687 673.834L376.83 669.276L407.016 523.295C439.191 533.895 472.519 548.889 503.979 572.548C516.422 581.907 527.723 591.994 538.058 602.526L508.759 694.436L375.687 673.834ZM366.926 708.756L374.367 679.094L397.742 682.714L395.095 711.979L366.926 708.756ZM366.262 711.395L394.853 714.669L392.75 737.923L360.477 734.446L366.262 711.395ZM369.032 678.146L361.508 708.133L226.217 692.648L235.106 651.681L369.032 678.146ZM245.712 602.797L380.665 624.032L371.561 668.073L370.348 672.9L236.251 646.401L245.712 602.797ZM241.958 556.34L135.573 545.534L142.371 495.45L251.705 511.412L241.958 556.34ZM77.7443 324.094L154.752 387.614C155.021 387.836 155.328 388.004 155.66 388.107L208.102 404.635C211.464 406.237 244.885 422.11 270.869 432.954C268.051 449.339 265.837 462.219 264.521 469.864C258.851 466.735 254.263 463.185 251.026 458.978C224.673 424.74 200.341 417.014 176.809 409.543C171.181 407.758 165.36 405.908 159.566 403.713C146.15 398.626 134.047 389.477 122.345 380.629C108.791 370.386 94.7784 359.793 78.6968 355.624C78.2194 355.501 77.6748 355.382 77.1548 355.259L77.7443 324.094ZM78.2418 238.177L76.5564 261.484L9.82965 265.236L9.21777 241.198L78.2418 238.177ZM7.29919 165.726L60.3157 166.405L55.2099 225.662L8.87482 227.689L7.29919 165.726ZM-48.2119 242.607L-41.405 243.335C-41.0666 243.373 -40.7259 243.382 -40.3897 243.369L-15.4839 242.28L-7.87689 293.841C-7.77826 294.506 -7.20673 294.994 -6.53882 294.994H-6.51416L7.87524 294.728L8.47137 318.21L-38.4307 317.152C-41.1405 296.347 -44.7289 268.887 -48.2119 242.607ZM-40.2843 344.879C-48.5414 344.487 -54.9853 344.216 -58.466 344.077C-69.7086 332.259 -123.758 275.441 -167.2 229.853L-53.7413 242.014C-49.1466 276.691 -44.0699 315.618 -40.2843 344.879ZM-26.8408 165.289L-17.4653 228.845L-40.4726 229.851L-50.0431 228.825C-53.7234 201.205 -57.0674 176.612 -58.8358 164.879L-26.8408 165.289ZM93.8909 55.9728C91.8445 64.2295 90.5176 69.5607 90.4616 69.7892C90.4257 69.9392 90.4011 70.0916 90.3876 70.2461L88.8702 91.2259L5.3761 90.153L3.63013 21.4275C29.4189 20.7421 48.1721 20.2605 54.9342 20.088L93.8909 55.9728ZM97.5935 41.0118L62.0818 8.29889C61.9003 8.13089 61.6941 8.00098 61.4991 7.8576L60.5869 6.76672L87.178 -11.1197L112.218 -18.5923C107.738 -0.114563 102.036 23.0336 97.5935 41.0118ZM106.942 49.6224L102.128 45.1895C105.772 30.4525 110.414 11.632 114.556 -5.3315L138.157 16.2352L106.942 49.6224ZM185.151 59.185L153.43 92.4445L108.93 51.4547L140.152 18.0608L185.151 59.185ZM195.652 68.7811L163.289 101.53L155.415 94.2768L187.148 61.0083L195.652 68.7811ZM221.252 88.5155L188.428 58.5175L188.235 38.4112V38.409L187.762 -10.9382L216.174 2.52194L221.252 88.5155ZM221.344 44.2487L218.91 3.07074L234.595 3.88385L235.998 43.7335L221.344 44.2487ZM237.596 89.1271L224.065 90.2941L221.503 46.9478L236.092 46.4349L237.596 89.1271ZM238.699 43.6394L237.305 4.02496L252.952 4.83807L254.308 43.0906L238.699 43.6394ZM255.883 87.5479L240.292 88.8941L238.793 46.3386L254.404 45.792L255.883 87.5479ZM275.562 42.3447L257.008 42.9965L255.661 4.97696L272.249 5.83713L275.562 42.3447ZM278.267 42.2506L274.977 5.97824L308.162 7.70081L311.672 41.0768L278.267 42.2506ZM316.016 82.36L282.172 85.2787L278.512 44.9453L311.957 43.7693L316.016 82.36ZM354.513 17.9062L336.728 55.1933L317.26 42.5015L313.506 6.79584L316.401 -1.60416L354.513 17.9062ZM362.378 -26.8848L373.206 -21.2848L355.676 15.4669L317.289 -4.18462L326.987 -32.3145L362.378 -26.8848ZM362.022 -29.6713L327.884 -34.9129L344.015 -81.7043L379.694 -65.9213L362.022 -29.6713ZM386.728 -41.4314C386.551 -41.1043 386.519 -40.7213 386.636 -40.3696C386.748 -40.0157 387.006 -39.7267 387.34 -39.5699L399.66 -33.7616L391.062 -15.0957L364.597 -28.7798L382.169 -64.8259L396.018 -58.7018L386.728 -41.4314ZM400.79 -36.2144L389.783 -41.4045L398.497 -57.6042L408.585 -53.1421L400.79 -36.2144ZM426.099 -24.2819L403.237 -35.063L411.06 -52.049L434.598 -41.6374L426.099 -24.2819ZM453.558 -11.3347L428.547 -23.1283L437.073 -40.5421L457.453 -31.5283L453.558 -11.3347ZM475.803 2.14111L454.192 13.9078L458.076 -6.21631L475.803 2.14111ZM499.512 -10.7702L478.741 0.541779L458.605 -8.95584L462.498 -29.1427L499.512 -10.7702ZM501.849 -12.6249L463.283 -31.768L481.527 -67.7715L519.581 -46.9171L501.849 -12.6249ZM529.814 -25.3661L505.485 -13.7718L521.302 -44.3568L529.814 -25.3661ZM532.255 -26.5286L522.886 -47.4256L529.653 -60.5139L543.915 -32.0838L532.255 -26.5286ZM558.326 -3.36255L545.383 2.74146L533.363 -24.0624L545.127 -29.6669L558.326 -3.36255ZM560.772 -4.51392L547.568 -30.8317L571.16 -42.0697C573.796 -33.0493 576.658 -23.2605 579.547 -13.3664L560.772 -4.51392ZM511.691 21.6112L513.937 20.5517C514.186 20.7734 514.477 20.9325 514.809 20.9325C514.979 20.9325 515.152 20.9011 515.32 20.8317C515.867 20.6099 516.174 20.0701 516.147 19.5123L580.314 -10.7411C583.911 1.58337 587.524 13.9706 590.788 25.1549L511.691 21.6112ZM600.327 57.8768L579.933 64.72L571.046 37.793L594.784 38.857C596.987 46.4125 598.89 52.9398 600.327 57.8768ZM603.846 60.287C602.387 55.2829 600.226 47.8685 597.635 38.9846L610.079 39.5424L603.846 60.287ZM647.857 81.1415L615.196 91.4208L607.353 67.399L615.646 39.7933L635.522 40.6826L647.857 81.1415ZM673.683 42.3939C675.943 50.1421 677.756 58.5712 678.747 67.5782C678.883 68.8371 679.016 70.0692 679.146 71.2922L650.434 80.3283L638.387 40.8125L673.683 42.3939ZM673.112 -6.85471L685.305 29.393L671.94 28.7927C664.696 9.99008 655.643 -3.24382 651.777 -8.43839L673.112 -6.85471ZM672.177 -9.63231L649.766 -11.2966L640.005 -33.7728L665.191 -30.3994L672.177 -9.63231ZM747.419 -4.04576L675.102 -9.41502L668.177 -30.0006L752.105 -18.7581L747.419 -4.04576ZM857.618 6.84738L855.512 37.0202L741.641 31.9152L752.119 -0.988159L857.618 6.84738ZM859.481 -19.8064L857.807 4.15265L752.962 -3.63359L758.166 -19.9744L859.481 -19.8064ZM884.557 38.3216L858.215 37.1411L862.193 -19.8019L890.474 -19.7549C888.654 -1.82591 886.646 17.8771 884.557 38.3216ZM919.894 173.741L882.934 185.853C884.171 174.005 885.485 161.38 886.841 148.277C896.414 145.004 905.899 141.76 915.27 138.553L919.894 173.741ZM922.5 172.887L917.877 137.661C929.047 133.835 940.05 130.065 950.829 126.372L962.405 159.812L922.5 172.887ZM970.703 183.778L926.073 200.11L922.859 175.613L963.293 162.366L970.703 183.778ZM1012.53 168.475L975.781 181.919L968.233 160.11L995.483 143.454L1012.53 168.475ZM1015.14 167.518L997.998 142.345L1026.18 132.924L1035.71 159.992L1015.14 167.518ZM1030.38 189.878L1016.71 169.821L1068.15 150.998L1074.88 164.801L1030.38 189.878ZM1031.9 192.113L1076.52 166.974L1089.61 183.866L1049.88 218.498L1031.9 192.113ZM1003.5 208.116L1029.54 193.446L1047.82 220.288L1044.78 222.94L1016.37 236.645L1003.5 208.116ZM987.896 216.908L1001.14 209.446L1013.94 237.82L997.827 245.593L987.896 216.908ZM947.592 275.831L994.705 253.1L1007.3 289.491L960.249 312.283L947.592 275.831ZM881.791 365.886L878.517 356.361C878.463 356.07 878.38 355.606 878.277 354.986L958.694 316.037L962.658 327.459L881.791 365.886ZM888.024 384.012L882.677 368.457L963.551 330.026L970.154 349.05L888.024 384.012ZM944.19 389.695L936.348 367.163C936.262 366.909 936.094 366.719 935.899 366.567L971.043 351.604L979.213 375.141L944.19 389.695ZM978.195 441.15C977.884 441.253 972.745 443.173 963.954 446.477L945.082 392.253L980.103 377.702L997.908 428.987C987.163 436.078 979.948 440.567 978.195 441.15ZM965.729 451.579C974.475 448.291 979.59 446.38 979.901 446.277C981.936 445.601 989.12 441.186 999.634 434.28L1013.53 479.1L980.06 492.757L965.729 451.579ZM933.006 514.873L978.442 496.334L987.369 521.976L941.803 540.465L933.006 514.873ZM886.617 619.284L870.773 572.197L930.139 548.112L946.427 595.497L886.617 619.284ZM930.323 645.684C930.312 645.63 930.318 645.574 930.298 645.518L917.386 609.954L947.308 598.057L959.709 634.137L930.323 645.684ZM909.707 689.718L900.388 660.352L959.913 636.962L962.174 671.502L909.707 689.718ZM890.234 699.339L907.97 693.181L916.155 718.982L898.547 725.71L890.234 699.339ZM887.679 700.224L896.019 726.676L887.863 729.792L879.196 703.169L887.679 700.224ZM866.678 673.597L886.144 665.949L894.78 694.899L876.32 701.306L866.678 673.597ZM852.371 679.221L864.161 674.589L873.767 702.193L861.55 706.435L852.371 679.221ZM819.664 692.072L849.852 680.209L859.425 708.597C859.427 708.599 859.425 708.601 859.427 708.601C859.427 708.604 859.429 708.604 859.429 708.604L869.002 736.998L838.755 748.552C834.035 734.366 827.475 714.981 819.664 692.072ZM814.6 693.963C824.256 722.261 831.973 745.1 836.642 759.308L764.581 786.757L762.918 786.394L741.051 720.874L814.6 693.963ZM784.797 607.078C795.383 637.824 805.268 666.619 813.726 691.407L740.197 718.31L712.822 636.281L784.797 607.078ZM686.822 558.093C708.561 549.581 733.027 540.113 758.339 530.38C767.048 555.585 775.686 580.619 783.917 604.52L711.965 633.714L686.822 558.093ZM699.102 603.586L651.084 622.617C651.077 622.585 651.086 622.554 651.075 622.523L637.623 577.629C650.521 572.396 666.426 566.084 684.303 559.077L699.102 603.586ZM740.036 477.462C745.514 493.281 751.054 509.304 756.577 525.284C731.308 535.004 706.869 544.463 685.121 552.977L669.727 506.679L740.036 477.462ZM661.161 480.912L731.456 452.681C734 460.024 736.566 467.438 739.15 474.902L668.874 504.107L661.161 480.912ZM589.416 509.721L658.649 481.92L666.37 505.147L579.348 541.311L589.416 509.721ZM567.7 518.443L582.909 512.335L567.935 559.312C564.916 554.783 561.901 550.343 558.909 546.02L567.7 518.443ZM545.591 527.323L564.448 519.749L556.964 543.222C553.106 537.692 549.301 532.372 545.591 527.323ZM413.272 466.032C456.882 475.247 497.205 483.909 501.208 484.767C509.042 488.528 531.002 515.26 554.877 549.763L542.682 588.029C533.28 578.863 523.131 570.044 512.106 561.754C477.97 536.081 442.035 520.276 407.666 509.27L413.272 466.032ZM275.992 435.064C286.885 439.49 295.869 442.702 299.744 443.054C306.425 443.663 360.242 454.834 410.62 465.472L405.048 508.446C379.573 500.447 355.006 495.022 332.732 490.107C307.129 484.46 285.117 479.581 269.571 472.402C270.808 465.201 273.068 452.07 275.992 435.064ZM248.251 388.626L277.523 394.26C275.463 406.246 273.54 417.43 271.81 427.492C262.923 423.752 253.046 419.393 243.578 415.116L248.251 388.626ZM212.646 381.772L245.595 388.116L241.037 413.965C228.821 408.423 217.536 403.144 210.326 399.71L212.646 381.772ZM150.675 350.087L212.807 359.426L207.712 398.847L157.787 383.114L146.502 373.802L150.675 350.087ZM129.459 346.9L148.001 349.686L144.106 371.828L115.591 348.309L129.459 346.9ZM100.994 318.669L151.948 327.244L148.467 347.025L129.692 344.205C129.582 344.187 129.47 344.187 129.353 344.196L112.66 345.887L80.2859 319.186L100.994 318.669ZM79.6337 293.881L155.707 305.876L152.417 324.585L101.314 315.985C101.229 315.97 101.151 315.97 101.056 315.965L77.9953 316.541L79.6337 293.881ZM83.4104 166.701L79.2236 224.611L57.9332 225.541L63.0255 166.441L83.4104 166.701ZM114.415 167.097L112.947 189.564L87.4874 185.288L88.8277 166.77L114.415 167.097ZM117.113 125.803L114.592 164.402L89.0227 164.075L91.9543 123.547L117.113 125.803ZM115.293 96.9827L127.724 109.408L117.898 123.159L92.1494 120.852L94.0702 94.3015L115.293 96.9827ZM129.373 107.233L116.878 94.745C116.665 94.5322 116.389 94.3978 116.091 94.3597L94.2651 91.609L95.7646 70.8666C96.0045 69.9034 96.9794 65.9811 98.425 60.1482L137.893 96.5056L129.373 107.233ZM148.963 135.072L120.655 123.95L130.577 110.064L139.885 98.3424L153.99 111.337L148.963 135.072ZM186.223 124.568L181.043 147.676L151.516 136.073L156.303 113.467L160.456 117.293C161.142 117.924 161.951 118.406 162.834 118.711C163.702 119.009 172.125 121.844 186.223 124.568ZM199.984 98.3693C198.285 103.947 197.335 109.079 196.817 112.622C181.957 110.253 171.921 107.392 168.521 106.346L165.277 103.362L197.647 70.6022L218.899 90.023C212.948 89.7206 202.425 90.3635 199.984 98.3693ZM199.496 113.032C200.002 109.576 200.932 104.543 202.573 99.1555C204.868 91.6112 217.742 92.5184 221.515 92.953L222.848 115.537C214.224 114.963 206.39 114.063 199.496 113.032ZM242.484 129.752L237.06 171.738L181.045 165.408L183.349 149.748L188.879 125.068C202.501 127.554 220.853 129.803 242.484 129.752ZM287.564 126.289C288.367 132.216 289.414 139.72 289.853 141.899C290.337 144.289 286.291 164.187 283.461 176.982L273.713 175.88C273.706 175.88 273.704 175.876 273.697 175.873C273.691 175.873 273.682 175.876 273.675 175.876L239.746 172.041L245.214 129.727C258.288 129.581 272.503 128.578 287.564 126.289ZM318.428 105.284C308.187 108.382 298.63 110.777 290.151 112.208C287.757 112.611 285.388 112.97 283.033 113.306L282.331 87.9779L316.298 85.0458L318.428 105.284ZM349.362 66.6576L321.283 80.7383L317.623 45.9622L349.362 66.6576ZM374.152 50.3011L371.693 55.4576L352.157 65.2554L339.012 56.6851L347.07 39.7933L374.152 50.3011ZM380.47 37.0426L375.317 47.855L348.237 37.3472L353.513 26.2816L380.47 37.0426ZM389.536 18.0138L381.633 34.5987L354.681 23.8378L362.651 7.12738L389.536 18.0138ZM401.335 -6.74272L390.702 15.5722L363.817 4.68579L375.613 -20.0416L391.132 -12.0179H391.134L401.335 -6.74272ZM415.432 -2.49568L393.467 -13.8525L402.106 -32.608L424.911 -21.8537L415.432 -2.49568ZM448.55 14.6247L417.833 -1.25471L427.356 -20.7001L453.031 -8.5952L448.55 14.6247ZM490.091 28.8083L447.439 48.9168L453.528 17.3463L478.181 3.92194L490.091 28.8083ZM516.05 64.001L489.531 76.713L475.915 52.6285C489.941 45.5456 500.8 39.8336 506.697 36.6954L516.05 64.001ZM553.709 73.5165L527.979 82.1495L511.877 35.1408L541.938 36.4893L553.709 73.5165ZM556.276 72.6563L544.818 36.6192L568.157 37.6631L577.369 65.5779L556.276 72.6563ZM586.132 92.1398L564.468 98.4253L557.089 75.2211L578.214 68.1383L586.132 92.1398ZM623.37 133.871L604.877 140.311L592.079 101.53L610.877 95.6118L623.37 133.871ZM652.328 95.8022C652.328 95.8022 652.328 95.8022 652.328 95.8045L660.038 121.099L628.476 132.092L616.034 93.9879L648.645 83.7242L652.328 95.8022ZM680.531 85.5654L654.511 93.7056L651.221 82.9133L679.43 74.0339C679.849 78.0682 680.215 81.903 680.531 85.5654ZM689.924 43.1219L710.273 103.602L684.704 112.506C684.547 99.7984 683.435 85.5207 681.434 67.2848C680.464 58.457 678.72 50.1667 676.537 42.5216L689.924 43.1219ZM736.046 31.6666L688.2 29.5229L676.037 -6.63744L746.576 -1.4003L736.046 31.6666ZM756.828 87.3866L739.337 45.3351L861.798 50.8231L756.828 87.3866ZM878.916 93.3696L810.214 115.998L797.367 76.1261L869.076 51.1501L883.181 51.7818C881.775 65.5242 880.343 79.4861 878.916 93.3696ZM879.651 217.096C880.572 208.391 881.572 198.894 882.625 188.798L920.255 176.467L923.487 201.058L879.651 217.096ZM933.535 237.178L875.742 261.504C876.387 250.618 877.342 238.82 878.696 226.121C878.902 224.165 879.117 222.143 879.335 220.091L924.052 203.73L933.535 237.178ZM982.113 216.729L936.038 236.125L926.584 202.803L971.59 186.334L982.113 216.729ZM976.667 184.475L1014.1 170.78L1028.02 191.208L1001.21 206.313C1001.21 206.313 1001.21 206.313 1001.21 206.313C1001.2 206.315 1001.2 206.317 1001.2 206.319L986.999 214.321L976.667 184.475ZM936.78 238.739L982.996 219.28L992.923 247.959L945.842 270.675L936.78 238.739ZM875.887 334.163C875.39 327.77 874.96 320.035 874.747 310.977L945.145 277.009L953.547 301.217L875.887 334.163ZM876.121 337.001L954.437 303.775L957.802 313.47L877.84 352.199C877.356 348.907 876.71 343.837 876.121 337.001ZM825.912 438.847L818.42 416.579L876.437 391.881L884.248 414.606L825.912 438.847ZM903.095 469.439C885.115 476.244 864.943 483.893 843.774 491.948L826.778 441.416L885.129 417.168L903.095 469.439ZM896.752 409.411L888.903 386.574L933.732 367.49C933.714 367.673 933.732 367.864 933.797 368.05L941.691 390.734L896.752 409.411ZM915.743 464.656L897.635 411.969L942.581 393.292L961.424 447.429C950.45 451.552 934.676 457.5 915.743 464.656ZM917.498 469.759C936.446 462.6 952.232 456.653 963.199 452.529L977.554 493.779L932.125 512.315L917.498 469.759ZM861.153 543.603L920.452 519.94L929.258 545.552L869.912 569.629L861.153 543.603ZM830.566 614.562L822.837 591.644L868.265 573.216L876.385 597.354L830.566 614.562ZM838.599 638.382L831.431 617.12L877.248 599.917L884.1 620.285L838.599 638.382ZM836.949 641.943L848.989 677.647L818.79 689.514C815.004 678.411 810.929 666.505 806.639 653.997L836.949 641.943ZM820.329 592.663L836.084 639.381L805.763 651.439C800.709 636.697 795.359 621.129 789.818 605.042L820.329 592.663ZM810.589 563.783L819.464 590.099L788.939 602.484C785.952 593.806 782.91 584.982 779.833 576.056L810.589 563.783ZM794.63 516.463L809.723 561.218L778.952 573.5C773.837 558.676 768.631 543.587 763.395 528.438C773.734 524.462 784.188 520.457 794.63 516.463ZM776.384 462.358L792.907 511.351C782.451 515.352 771.988 519.364 761.633 523.342C756.095 507.313 750.536 491.243 745.045 475.379L776.384 462.358ZM768.151 437.947L775.518 459.789L744.16 472.821C741.582 465.378 739.023 457.983 736.486 450.663L768.151 437.947ZM729.327 429.997L809.358 398.122L815.06 415.074L768.474 434.907C768.474 434.907 768.474 434.907 768.472 434.907L735.6 448.105C733.489 442.012 731.398 435.971 729.327 429.997ZM654.186 459.93L724.293 432.004C726.364 437.982 728.457 444.026 730.573 450.128L660.307 478.341L654.186 459.93ZM598.175 482.238L651.669 460.931L657.795 479.353L590.481 506.381L598.175 482.238ZM576.488 490.876L591.675 484.828L583.972 508.995L568.764 515.101L576.488 490.876ZM573.236 492.17L565.51 516.407L543.935 525.074C539.611 519.227 535.433 513.766 531.482 508.802L573.236 492.17ZM577.432 479.006L574.298 488.839L529.716 506.598C528.033 504.508 526.394 502.515 524.807 500.626L577.432 479.006ZM524.245 466.583C524.798 466.522 525.242 466.133 525.386 465.595L584.821 414.057L600.325 408.585C589.08 443.186 581.092 467.553 580.827 468.357L578.505 475.646L522.974 498.458C516.355 490.728 510.738 484.975 506.621 481.866L524.245 466.583ZM469.915 434.705L524.003 445.442L523.05 460.465L501.359 479.275C496.69 478.271 482.007 475.119 462.563 470.971L469.915 434.705ZM418.653 424.529L467.263 434.179L459.921 470.406C446.197 467.483 430.308 464.105 413.969 460.651L418.653 424.529ZM375.613 427.302L414.287 437.172L411.317 460.091C398.035 457.287 384.527 454.449 371.7 451.776L375.613 427.302ZM356.485 381.017L379.712 384.509L369.05 451.225C360.935 449.536 353.128 447.921 345.857 446.432L356.485 381.017ZM335.576 377.876L353.814 380.616L343.21 445.89C336.699 444.559 330.663 443.336 325.286 442.268L335.576 377.876ZM322.709 375.941L332.902 377.473L322.632 441.741C318.862 440.993 315.471 440.334 312.508 439.772L322.709 375.941ZM307.606 373.672L320.035 375.54L309.85 439.27C304.995 438.368 301.647 437.803 300.235 437.673C299.432 437.602 298.314 437.357 296.98 436.995L307.606 373.672ZM287.08 370.588L304.933 373.271L294.369 436.224C289.958 434.813 283.875 432.477 276.929 429.62C279.841 412.686 283.324 392.434 287.08 370.588ZM252.355 365.368L281.732 369.783C280.446 377.263 279.191 384.558 277.98 391.596L248.72 385.965L252.355 365.368ZM215.481 359.827L249.681 364.967L246.066 385.454L212.991 379.088L215.481 359.827ZM215.582 337.955L213.154 356.747L151.143 347.428L154.613 327.694L215.582 337.955ZM158.378 306.297L218.448 315.768L215.927 335.274L155.081 325.035L158.378 306.297ZM160.676 277.625L156.173 303.229L79.8287 291.197L81.7607 264.49L160.676 277.625ZM136.023 196.179L128.844 230.084C123.499 229.324 118.256 228.581 113.153 227.855L115.448 192.725L136.023 196.179ZM142.106 167.453L136.584 193.533L115.625 190.014L117.12 167.133L142.106 167.453ZM142.676 164.765L117.297 164.438L119.776 126.508L148.396 137.753L142.676 164.765ZM178.34 165.222L145.432 164.799L150.948 138.754L180.525 150.375L178.34 165.222ZM227.721 244.007C208.389 241.306 189.179 238.607 170.659 235.995L180.653 168.076L236.713 174.413L227.721 244.007ZM266.586 212.567C250.668 209.93 238.932 207.986 235.182 207.363L239.4 174.715L271.936 178.393L266.586 212.567ZM313.817 183.126C311.97 193.876 309.868 206.12 307.593 219.361C293.759 217.069 280.56 214.883 269.253 213.008L274.623 178.696L313.817 183.126ZM443.947 98.5642L442.703 69.5942C443.057 69.3344 443.333 68.9827 443.528 68.5728C454.423 63.3491 464.551 58.3472 473.496 53.8471L487.088 77.8823L443.947 98.5642ZM498.106 97.3725L445.097 125.325L444.07 101.485L488.419 80.2365L498.106 97.3725ZM500.498 96.1114L490.86 79.065L516.929 66.5747L522.985 84.2528L500.498 96.1114ZM537.722 127.274L505.799 137.861L501.41 98.6695L523.866 86.8243L537.722 127.274ZM532.881 96.4563L528.849 84.6918L554.527 76.0813L558.797 89.5123L532.881 96.4563ZM567.648 117.349L542.852 125.574L533.757 99.0189L559.615 92.0883L567.648 117.349ZM570.214 116.498L565.288 101.004L586.982 94.7091L591.81 109.336L570.214 116.498ZM580.489 148.807L571.033 119.071L592.655 111.901L602.324 141.2L580.489 148.807ZM628.778 221.368C620.983 223.973 613.376 226.511 605.977 228.975L581.307 151.381L603.171 143.767L628.778 221.368ZM649.654 214.377C643.448 216.458 637.338 218.505 631.34 220.51L605.724 142.878L624.208 136.438L649.654 214.377ZM670.631 155.843L640.675 169.458L629.314 134.662L660.825 123.686L670.631 155.843ZM662.591 120.207L655.3 96.2906L680.764 88.3251C681.521 97.6099 681.943 105.813 682.008 113.447L662.591 120.207ZM676.315 165.224L663.38 122.794L682.014 116.305C681.958 133.083 680.118 147.403 676.315 165.224ZM711.744 107.979L681.241 203.764C676.42 205.385 671.63 206.998 666.908 208.584C672.789 189.282 676.969 174.865 678.348 168.605C682.689 148.89 684.735 133.613 684.722 115.362L711.134 106.162L711.744 107.979ZM713.496 102.477L712.826 102.713L692.82 43.2519L731.801 44.9968L713.496 102.477ZM719.877 100.255L736.952 46.641L754.273 88.2758L719.877 100.255ZM771.155 128.862L748.396 136.357L735.168 97.7914L755.311 90.7757L771.155 128.862ZM773.728 128.016L757.866 89.8842L794.814 77.0154L807.646 116.843L773.728 128.016ZM814.894 139.332L782.926 150.129L774.767 130.518L808.475 119.414L814.894 139.332ZM874.289 138.253C857.096 144.124 839.972 149.961 823.017 155.733L817.868 139.758C817.868 139.756 817.868 139.756 817.868 139.756C817.868 139.753 817.868 139.753 817.868 139.753L811.043 118.57L878.613 96.313C877.154 110.51 875.701 124.597 874.289 138.253ZM875.578 264.503L934.276 239.792L943.372 271.866L874.646 305.023C874.507 293.424 874.733 279.906 875.578 264.503ZM807.612 384.453L865.683 360.599L869.365 371.313L811.01 394.556L807.612 384.453ZM805.106 385.484L808.495 395.557L728.441 427.443C727.377 424.37 726.317 421.315 725.263 418.282L805.106 385.484ZM715.735 390.799C715.832 390.788 715.926 390.783 716.02 390.752L797.501 362.877L804.243 382.919L724.38 415.724C721.435 407.232 718.548 398.908 715.735 390.799ZM650.544 448.976L720.249 420.34C721.296 423.355 722.349 426.393 723.407 429.448L653.33 457.361L650.544 448.976ZM602.485 468.715L648.036 450.005L650.815 458.362L599.238 478.905L602.485 468.715ZM559.633 406.121L561.76 374.593L593.805 378.282L601.692 402.369L582.573 409.118L559.633 406.121ZM529.281 404.875L579.577 411.45L525.915 457.981L529.281 404.875ZM474.073 414.187L477.336 398.088L526.594 404.526L525.43 422.878L474.073 414.187ZM473.537 416.835L525.258 425.591L524.175 442.72L470.451 432.055L473.537 416.835ZM420.807 407.913L470.87 416.384L467.799 431.529L419.001 421.843L420.807 407.913ZM405.501 388.384L420.323 390.613L414.639 434.472L399.454 430.599L405.501 388.384ZM382.384 384.91L402.829 387.983L396.818 429.925L376.039 424.623L382.384 384.91ZM364.985 328.695L388.113 331.932L380.136 381.841L356.92 378.354L364.985 328.695ZM343.907 325.74L362.311 328.319L354.246 377.95L336.004 375.209L343.907 325.74ZM331.017 323.937L341.229 325.366L333.328 374.808L323.132 373.276L331.017 323.937ZM316.298 321.874L328.341 323.561L320.461 372.872L308.052 371.009L316.298 321.874ZM295.947 319.023L313.62 321.498L305.381 370.608L287.54 367.924C290.245 352.181 293.085 335.675 295.947 319.023ZM249.235 340.881L252.331 321.11L289.104 326.91C287.943 333.666 286.789 340.379 285.648 347.009L249.235 340.881ZM248.816 343.551L285.191 349.673C284.178 355.575 283.176 361.392 282.19 367.122L245.979 361.679L248.816 343.551ZM246.151 343.101L243.307 361.278L215.826 357.148L218.249 338.405L246.151 343.101ZM221.118 316.191L249.661 320.689L246.57 340.433L218.594 335.722L221.118 316.191ZM192.411 282.907L222.057 287.842L218.794 313.096L188.565 308.331L192.411 282.907ZM189.744 282.464L185.895 307.91L158.845 303.647L163.343 278.069L189.744 282.464ZM222.404 285.161L199.186 281.297L204.877 254.441C211.789 255.409 218.834 256.397 225.991 257.396L222.404 285.161ZM258.851 261.974L254.388 290.485L225.072 285.604L228.669 257.77C238.591 259.156 248.689 260.563 258.851 261.974ZM260.94 248.635C250.791 247.226 240.584 245.802 230.397 244.381L234.835 210.044C238.679 210.683 250.361 212.618 266.169 215.237L260.94 248.635ZM304.186 239.176L265.864 234.655L268.834 215.68C280.132 217.551 293.316 219.735 307.136 222.024C306.181 227.584 305.195 233.318 304.186 239.176ZM341.872 227.781L340.195 242.417C340.195 242.419 340.195 242.419 340.195 242.419C340.195 242.421 340.195 242.421 340.195 242.424L338.263 259.273C328.13 257.895 317.663 256.464 306.956 254.992C308.864 243.882 310.715 233.112 312.47 222.909C322.184 224.517 332.122 226.166 341.872 227.781ZM378.581 208.326L376.07 230.708C356.936 227.537 334.379 223.8 312.927 220.245C314.23 212.656 315.476 205.405 316.653 198.564L378.581 208.326ZM380.562 190.671L378.883 205.641L317.11 195.901C317.836 191.663 318.533 187.606 319.199 183.733L380.562 190.671ZM357.102 154.116L353.504 184.894L319.656 181.07C320.723 174.854 321.698 169.178 322.561 164.149L357.102 154.116ZM325.828 145.078L359.227 135.986L363.884 149.332L358.299 150.956C358.292 150.958 358.287 150.96 358.281 150.96L323.067 161.19C324.244 154.34 325.181 148.866 325.828 145.078ZM358.335 133.428L326.331 142.141C326.57 140.739 326.738 139.751 326.808 139.316C327.987 132.269 326.842 123.204 325.763 117.174C333.505 114.762 341.563 111.997 349.799 108.973L358.335 133.428ZM380.795 127.315L360.95 132.717L352.334 108.037C359.045 105.544 365.861 102.885 372.708 100.117L380.795 127.315ZM381.077 118.78L375.225 99.0928C397.464 90.0163 419.922 79.8243 440.024 70.2461L441.289 99.6775L381.077 118.78ZM388.073 142.307L381.848 121.372L441.407 102.462L442.441 126.513L388.073 142.307ZM420.419 146.218L422.04 135.78C422.069 135.6 422.058 135.423 422.02 135.26L442.562 129.293L443.321 147.018L420.419 146.218ZM417.427 165.471L420 148.908L443.438 149.726L444.216 167.838L417.427 165.471ZM445.392 195.278L413.359 191.656L417.013 168.148L444.332 170.56L445.392 195.278ZM474.151 148.357L446.479 157.537L445.224 128.311L463.87 118.476L474.151 148.357ZM472.396 134.94L466.293 117.199L498.844 100.025L501.524 123.993L472.396 134.94ZM476.719 147.506L473.275 137.495L501.836 126.761L503.176 138.732L476.719 147.506ZM507.161 174.346L488.222 180.942L477.596 150.06L503.481 141.476L507.161 174.346ZM548.866 159.821L509.779 173.434L506.103 140.604L538.596 129.83L548.866 159.821ZM553.974 158.043L543.726 128.128L568.466 119.925L577.934 149.697L553.974 158.043ZM581.096 237.236L554.846 160.599L578.752 152.27L603.411 229.828C595.732 232.384 588.3 234.85 581.096 237.236ZM621.767 289.078L598.877 295.89L583.485 250.651C591.223 248.1 599.22 245.452 607.448 242.722L621.767 289.078ZM644.867 270.126C640.59 283.622 636.112 297.655 631.598 311.745L610.016 241.87C617.502 239.384 625.181 236.828 633.017 234.214L644.867 270.126ZM656.152 234.27C653.063 244.175 649.733 254.753 646.261 265.724L635.581 233.358C641.583 231.354 647.679 229.313 653.857 227.245L656.152 234.27ZM654.78 212.656L641.518 172.043L671.424 158.451L675.111 170.54C673.278 177.916 669.223 191.771 663.761 209.641C660.749 210.654 657.748 211.662 654.78 212.656ZM666.742 249.292L660.374 229.79C660.928 228.007 661.475 226.249 662.011 224.515C666.679 222.949 671.393 221.368 676.142 219.771L666.742 249.292ZM698.293 246.35L670.447 255.474L682.496 217.636C684.11 217.092 685.728 216.547 687.349 216.003L698.293 246.35ZM737.573 184.746C720.478 190.532 703.784 196.168 687.598 201.622L714.66 116.641L737.573 184.746ZM734.305 166.555L716.045 112.286L718.853 103.472L732.617 98.6807L746.274 138.499C746.464 139.057 746.989 139.411 747.551 139.411C747.69 139.411 747.833 139.388 747.972 139.341L772.197 131.364L780.364 150.996L734.305 166.555ZM787.375 167.856C771.372 173.293 755.6 178.642 740.13 183.879L735.165 169.115L781.402 153.498L787.375 167.856ZM789.937 166.985L783.966 152.633L815.723 141.906L820.457 156.607C810.214 160.092 800.032 163.558 789.937 166.985ZM828.674 181.7L798.557 191.645L794.745 179.67C804.712 176.281 814.693 172.887 824.655 169.492L828.674 181.7ZM831.242 180.853L827.215 168.62C842.483 163.421 857.701 158.229 872.752 153.088C872.243 158.02 871.737 162.884 871.241 167.646L831.242 180.853ZM837.76 200.654L832.087 183.42L870.936 170.594C870.221 177.437 869.531 184.076 868.861 190.462L837.76 200.654ZM847.095 229.011L838.605 203.221L868.552 193.408C867.462 203.824 866.44 213.512 865.51 222.273L847.095 229.011ZM862.386 258.355L857.327 260.097L847.94 231.58L865.194 225.265C863.946 237.081 863.033 248.095 862.386 258.355ZM863.009 342.561C863.802 350.405 864.627 355.528 865.062 357.936L806.749 381.891L802.197 368.361L863.009 342.561ZM792.866 340.621L861.321 316.458C861.63 325.707 862.162 333.471 862.738 339.74L801.334 365.792L799.628 360.725L799.626 360.723L792.866 340.621ZM714.886 388.349C712.757 382.213 710.674 376.214 708.641 370.35L790.316 341.521L796.638 360.317L715.148 388.196C715.047 388.23 714.971 388.295 714.886 388.349ZM642.67 425.302L713.472 400.785C715.406 406.367 717.371 412.036 719.364 417.784L649.688 446.407L642.67 425.302ZM624.354 400.104L630.699 397.864L647.182 447.435L603.557 465.355L624.354 400.104ZM618.387 361.621L624.872 380.674L620.017 395.902L605.639 400.975C609.615 388.736 613.918 375.453 618.387 361.621ZM590.577 359.739L615.151 352.108L616.931 357.338C612.204 371.976 607.638 386.068 603.436 399.011L590.577 359.739ZM562.986 356.429L587.787 359.901L592.879 375.457L561.942 371.896L562.986 356.429ZM532.789 349.469L535.584 305.397L563.643 306.521L560.485 353.351L532.789 349.469ZM531.59 368.401L532.618 352.175L560.301 356.052L559.252 371.584L531.59 368.401ZM531.419 371.1L559.071 374.284L556.946 405.769L529.451 402.174L531.419 371.1ZM484.454 362.974L487.913 345.912L529.933 351.798L528.902 368.092L484.454 362.974ZM483.916 365.633L528.73 370.791L526.764 401.824L477.876 395.436L483.916 365.633ZM453.764 392.284L462.839 342.399L485.23 345.535L475.186 395.082L453.764 392.284ZM422.999 390.987L474.648 397.739L471.408 413.737L421.155 405.231L422.999 390.987ZM413.086 335.433L427.22 337.411L420.671 387.934L405.884 385.71L413.086 335.433ZM390.791 332.308L410.412 335.057L403.213 385.309L382.81 382.242L390.791 332.308ZM373.284 277.612C381.324 278.683 389.034 279.702 396.307 280.652L388.539 329.266L365.422 326.025L373.284 277.612ZM352.054 274.763C358.391 275.616 364.595 276.449 370.606 277.253L362.743 325.651L344.333 323.073L352.054 274.763ZM374.037 248.805L372.347 263.872C362.387 262.541 351.877 261.123 340.944 259.638L342.717 244.16L374.037 248.805ZM374.34 246.115L343.024 241.472L344.541 228.224C355.443 230.03 366.049 231.786 375.768 233.399L374.34 246.115ZM383.247 190.973L410.257 194.026L403.843 235.309C396.796 234.142 388.229 232.722 378.737 231.15L383.247 190.973ZM423.909 195.617V238.631C423.829 238.618 423.737 238.609 423.66 238.596C422.71 238.437 416.351 237.384 406.51 235.753L412.945 194.329L423.918 195.57C423.918 195.585 423.909 195.601 423.909 195.617ZM401.541 267.733L406.093 238.423C415.921 240.052 422.269 241.104 423.217 241.261C423.425 241.297 423.683 241.322 423.909 241.355V270.607C417.161 269.758 409.661 268.793 401.541 267.733ZM417.808 283.422L410.795 332.382L391.217 329.64L398.99 281.001C405.674 281.872 411.963 282.683 417.808 283.422ZM433.959 285.427L427.567 334.732L413.471 332.756L420.489 283.763C425.339 284.374 429.829 284.928 433.959 285.427ZM439.578 242.09L435.69 272.068C432.861 271.725 429.822 271.349 426.61 270.948V241.651C431.126 242.027 436.864 242.088 439.578 242.09ZM439.928 239.386C437.371 239.384 431.18 239.337 426.61 238.943V195.874L445.294 197.987L439.928 239.386ZM448.044 197.798L473.882 188.798L498.976 263.941C477.872 270.587 464.614 274.445 461.465 274.724C458.923 274.724 450.76 273.88 438.375 272.393L448.044 197.798ZM474.308 185.79H474.306C474.303 185.79 474.303 185.792 474.303 185.792L448.084 194.922L446.598 160.341L475.032 150.913L485.669 181.832L474.308 185.79ZM515.988 200.737L533.936 252.723C521.802 256.668 510.96 260.151 501.553 263.126L476.437 187.909L507.789 176.989L515.988 200.737ZM533.371 193.708L518.121 198.632L510.342 176.1L525.838 170.701L533.371 193.708ZM539.304 203.134L528.393 169.812L549.742 162.375L561.368 196.318L539.304 203.134ZM545.34 221.574L540.145 205.703L562.244 198.874L567.545 214.356L545.34 221.574ZM553.449 246.346L546.181 224.141L568.421 216.912L575.964 238.932C568.135 241.521 560.631 243.992 553.449 246.346ZM562.504 274.001L557.636 259.134C565.084 256.704 572.853 254.155 580.917 251.498L585.962 266.327L562.504 274.001ZM572.265 303.811L563.345 276.568L586.834 268.887L596.286 296.661L572.265 303.811ZM570.398 306.79L586.85 357.042L563.168 353.727L566.346 306.629L570.398 306.79ZM536.861 285.232L560.776 277.41L569.5 304.053L535.754 302.7L536.861 285.232ZM555.068 259.974L559.936 274.841L537.045 282.329L538.112 265.48C543.543 263.724 549.193 261.889 555.068 259.974ZM536.509 251.885L519.002 201.185L534.212 196.275L550.883 247.19C545.918 248.817 541.126 250.38 536.509 251.885ZM498.227 295.026L501.879 277.009C511.601 273.981 522.835 270.408 535.346 266.374L534.279 283.234L498.227 295.026ZM493.74 317.164L497.609 298.072L534.095 286.137L531.832 321.847L493.74 317.164ZM493.2 319.82L531.661 324.549L530.104 349.092L488.451 343.26L493.2 319.82ZM467.519 316.662L490.51 319.486L485.768 342.885L463.321 339.738L467.519 316.662ZM494.655 299.037L491.048 316.832L467.792 313.972V307.823L494.655 299.037ZM466.019 305.563C465.464 305.744 465.089 306.261 465.089 306.846L465.107 313.642L433.529 309.76L436.642 285.752C449.779 287.322 458.618 288.234 461.465 288.234C464.385 288.234 477.784 284.477 498.936 277.925L495.271 295.993L466.019 305.563ZM460.172 342.028L451.079 391.932L423.347 388.31L429.896 337.785L460.172 342.028ZM430.245 335.106L433.184 312.437L464.854 316.333L460.658 339.366L430.245 335.106ZM614.279 349.547L589.736 357.172L573.106 306.378L597.155 299.221L614.279 349.547ZM618.32 353.03L617.298 350.027C617.298 350.027 617.298 350.027 617.298 350.024L599.749 298.448L622.565 291.659L630.159 316.238C626.19 328.614 622.209 340.981 618.32 353.03ZM628.978 392.741L626.411 393.644L627.801 389.287L628.978 392.741ZM637.665 340.536L626.252 376.34L619.777 357.313C623.634 345.372 627.593 333.074 631.551 320.745L637.665 340.536ZM652.617 293.614L639.1 336.029L632.992 316.252C637.508 302.16 642 288.091 646.312 274.505L652.617 293.614ZM654.016 289.226L647.706 270.106C651.167 259.188 654.489 248.64 657.595 238.699L663.934 258.108L654.016 289.226ZM701.765 367.046L681.999 374.024L656.903 297.973L666.888 266.649C672.242 282.047 685.197 319.303 701.765 367.046ZM710.119 279.133L680.697 289.901C675.118 273.855 671.281 262.821 669.788 258.534L699.21 248.893L710.119 279.133ZM746.186 210.356C746.186 210.356 746.186 210.356 746.186 210.358L752.341 228.641L700.864 245.508L689.911 215.141C706.873 209.431 724.266 203.56 741.894 197.595L746.186 210.356ZM748.324 208.228L744.456 196.728C760.23 191.388 776.186 185.976 792.187 180.539L795.993 192.492L748.324 208.228ZM802.293 212.273L754.909 227.801L749.185 210.79L796.813 195.066L802.293 212.273ZM804.86 211.433L799.377 194.219L829.519 184.267L835.189 201.494L804.86 211.433ZM814.28 241.019L805.678 214.009L836.037 204.064L844.556 229.94L814.28 241.019ZM824.012 271.577L815.103 243.595L845.401 232.509L854.774 260.978L824.012 271.577ZM785.705 319.341C785.705 319.339 785.705 319.339 785.705 319.339L782.695 310.39C782.706 310.385 782.722 310.388 782.735 310.383L828.826 295.601L836.438 319.509L791.14 335.498L785.705 319.341ZM734.524 338.845L783.587 321.523L788.592 336.398L739.848 353.604L734.524 338.845ZM720.283 307.317L690.336 317.632C687.109 308.347 684.173 299.904 681.584 292.454L711.035 281.675L720.283 307.317ZM762.837 259.842L712.656 278.206L701.781 248.053L753.201 231.204L762.837 259.842ZM765.376 258.912L755.77 230.361L803.114 214.849L811.743 241.947L765.376 258.912ZM771.15 275.013C771.036 275.058 770.948 275.134 770.856 275.204L766.239 261.475L812.563 244.525L816.631 257.302L771.15 275.013ZM775.285 288.364L771.67 277.619C771.825 277.616 771.979 277.592 772.132 277.531L817.451 259.88L821.454 272.458L775.285 288.364ZM781.839 307.847L776.146 290.924L822.277 275.031L828.006 293.025L781.908 307.809C781.882 307.818 781.864 307.838 781.839 307.847ZM722.836 306.434L713.572 280.748L763.7 262.404L772.728 289.244L722.836 306.434ZM773.589 291.805L782.724 318.96L733.608 336.3L723.755 308.976L773.589 291.805ZM691.222 320.185L721.198 309.857L737.301 354.502L706.866 365.245C701.173 348.842 695.906 333.67 691.222 320.185ZM631.524 391.838L629.182 384.953L655.504 302.362L679.448 374.922L631.524 391.838ZM703.536 372.151C706.456 380.562 709.48 389.276 712.584 398.234L641.818 422.735L633.25 396.961L703.536 372.151ZM861.16 310.784L838.991 318.608L830.989 293.489C830.989 293.489 830.989 293.489 830.989 293.487C830.989 293.484 830.989 293.484 830.989 293.484L824.832 274.151L862.204 261.276C861.057 280.627 860.862 297.142 861.16 310.784ZM386.416 162.731L388.404 145.024L419.263 136.06L414.731 165.233L386.416 162.731ZM414.314 167.908L410.672 191.354L383.549 188.29L386.114 165.417L414.314 167.908ZM366.484 148.579L361.842 135.273L381.566 129.906L385.477 143.062L366.484 148.579ZM385.591 145.842L380.862 187.987L356.192 185.198L359.919 153.296L385.591 145.842ZM376.864 247.851L378.435 233.84C387.884 235.406 396.413 236.819 403.428 237.982L398.86 267.384C391.385 266.405 383.417 265.35 375.026 264.23L376.861 247.86C376.864 247.86 376.864 247.858 376.864 247.858C376.864 247.856 376.864 247.853 376.864 247.851ZM339.156 273.015C342.598 273.484 346 273.943 349.374 274.4L341.655 322.699L331.443 321.267L339.156 273.015ZM324.824 271.064C328.744 271.6 332.626 272.128 336.477 272.653L328.767 320.891L316.747 319.206L324.824 271.064ZM304.666 268.305C310.54 269.113 316.375 269.911 322.146 270.699L314.068 318.832L296.404 316.359C299.177 300.234 301.965 284.027 304.666 268.305ZM263.618 249.007L265.447 237.328L303.729 241.841C303.027 245.92 302.315 250.069 301.595 254.255C289.158 252.546 276.445 250.788 263.618 249.007ZM257.055 290.929L261.529 262.346C274.123 264.093 286.789 265.847 299.307 267.57C297.637 277.28 295.938 287.17 294.228 297.118L257.055 290.929ZM256.636 293.599L293.768 299.781C292.368 307.937 290.96 316.113 289.561 324.246L252.748 318.447L256.636 293.599ZM236.312 315.855L221.465 313.515L224.724 288.288L240.308 290.882L236.312 315.855ZM242.975 291.325L253.971 293.155L250.078 318.024L238.981 316.276L242.975 291.325ZM168.402 249.314C179.075 250.817 190.4 252.412 202.192 254.065L196.517 280.851L163.811 275.408L168.402 249.314ZM155.173 216.413L170.542 218.218L167.983 235.619C162.814 234.891 157.699 234.167 152.659 233.455L155.173 216.413ZM172.875 202.366L170.937 215.544L155.57 213.738L157.628 199.805L172.875 202.366ZM156.693 196.909C156.691 196.909 156.691 196.909 156.689 196.909H156.686L139.253 193.981L144.863 167.487L177.945 167.91L173.268 199.693L156.693 196.909ZM152.488 216.099L149.98 233.076C143.711 232.191 137.548 231.318 131.527 230.464L135.004 214.045L152.488 216.099ZM135.566 211.391L138.693 196.627L154.96 199.357L152.883 213.425L135.566 211.391ZM595.956 471.399L592.738 481.497L577.548 487.545L580.697 477.666L595.956 471.399ZM581.769 474.308L583.402 469.186C583.669 468.372 591.955 443.092 603.536 407.451L617.959 402.357L597.028 468.039L581.769 474.308ZM811.873 397.12L870.244 373.869L875.554 389.321L817.555 414.012L811.873 397.12ZM778.022 458.75L770.655 436.912L815.925 417.641L823.411 439.886L778.022 458.75ZM795.433 510.386L778.885 461.319L824.272 442.456L841.248 492.909C826.305 498.595 810.9 504.47 795.433 510.386ZM857.778 542.042L812.238 560.215L797.158 515.495C812.617 509.584 828.022 503.711 842.967 498.023L857.778 542.042ZM867.402 570.649L821.972 589.082L813.103 562.78L858.638 544.606L867.402 570.649ZM845.495 497.062C866.673 489.005 886.859 481.351 904.85 474.544L919.576 517.379L860.292 541.038L845.495 497.062ZM375.629 53.4842L403.737 -5.4995L415.439 0.548492C415.441 0.55072 415.441 0.552979 415.444 0.552979C415.446 0.552979 415.448 0.552979 415.448 0.552979L447.809 17.2835L375.629 53.4842ZM447.416 20.5046L440.8 54.808C405.062 72.0135 360.506 91.9427 323.693 103.653L321.586 83.61L447.416 20.5046ZM292.502 141.362C292.078 139.267 291.036 131.774 290.236 125.868C290.96 125.753 291.675 125.65 292.401 125.527C300.938 124.087 310.43 121.757 320.543 118.762C321.516 124.387 322.482 132.397 321.476 138.429C321.099 140.681 318.367 156.636 314.274 180.463L286.161 177.285C287.901 169.427 293.21 144.865 292.502 141.362ZM84.661 224.372L87.2924 187.996L112.77 192.272L110.468 227.474C102.78 226.381 95.3858 225.326 88.3794 224.327C87.9647 224.266 87.5457 224.248 87.1288 224.264L84.661 224.372ZM87.0906 237.789C93.1781 238.658 124.073 243.062 165.723 248.935L161.144 274.964L81.9557 261.782L83.6816 237.939L87.0906 237.789ZM897.046 658.761L851.506 676.659L839.464 640.944L884.963 622.85L897.046 658.761ZM907.152 690.603L897.335 694.012L888.668 664.959L897.866 661.344L907.152 690.603ZM887.48 621.848L914.873 610.953L927.756 646.441C927.786 646.522 927.862 646.565 927.907 646.636L899.565 657.773L887.48 621.848ZM601.952 68.2704L610.038 93.0448L591.234 98.9629L580.778 67.2803L601.084 60.4707C601.622 62.3187 602.073 63.8621 602.418 65.0426L601.932 66.6554C601.772 67.184 601.781 67.7462 601.952 68.2704ZM504.171 -10.152L530.922 -22.8998L542.938 3.89279L515.205 16.9677L504.171 -10.152ZM512.756 18.1213L492.537 27.6547L480.559 2.62723L501.757 -8.91551L512.756 18.1213ZM257.105 45.6979L275.806 45.0394L279.48 85.5117L258.577 87.3149L257.105 45.6979ZM279.635 88.2086L280.338 113.673C260.166 116.352 241.586 116.621 225.567 115.707L224.224 92.9911L279.635 88.2086ZM5.44562 92.8499L88.6775 93.9184L83.6076 164.006L7.22968 163.027L5.44562 92.8499ZM7.19604 268.09L7.80573 292.031L-5.37555 292.273L-8.80927 268.99L7.19604 268.09ZM-14.7488 228.724L-24.1019 165.325L4.59387 165.693L6.17181 227.81L-14.7488 228.724ZM6.51691 241.315L7.12885 265.388L-9.2038 266.307L-12.7675 242.159L6.51691 241.315ZM918.686 718.016L910.525 692.294L962.356 674.302L964.082 700.674L918.686 718.016ZM964.909 713.341L966.888 743.577L930.883 756.452L922.348 729.554L964.909 713.341ZM921.53 726.972L919.506 720.597L964.266 703.496L964.725 710.521L921.53 726.972ZM863.41 -74.1667L864.058 -85.3062L897.149 -85.6803C896.788 -82.0851 896.382 -78.0755 895.938 -73.6672L863.41 -74.1667ZM804.472 -75.0717L807.2 -84.6634L861.348 -85.2749L860.705 -74.2093L804.472 -75.0717ZM767.51 -75.6384L768.942 -84.231L804.382 -84.632L801.675 -75.1142L767.51 -75.6384ZM861.962 -71.4877C861.969 -71.4877 861.976 -71.4877 861.982 -71.4877H861.985L895.667 -70.9702C894.316 -57.6042 892.637 -41.0371 890.75 -22.4563L758.677 -22.6736L767.06 -72.9414L861.962 -71.4877ZM154.293 2.93411L173.557 -17.6672L185.046 -12.224L185.499 35.0311L154.293 2.93411ZM185.537 38.9443L185.703 56.0266L141.999 16.0874L152.446 4.91202L185.537 38.9443ZM-72.1359 91.8531L2.7403 92.8141L4.52441 162.991L-59.2527 162.173C-59.6001 159.976 -59.8579 158.493 -60.0058 157.897C-60.8037 154.712 -66.0462 125.841 -72.1359 91.8531ZM-134.319 94.0797L-77.6294 91.8554C-71.4478 126.358 -66.0888 155.866 -65.2528 159.21C-65.0309 160.095 -64.5333 163.188 -63.8251 168.018L-126.26 174.619L-134.319 94.0797ZM-212.127 97.1373L-137.025 94.1872L-128.949 174.901L-193.713 181.749C-198.691 157.111 -205.699 123.619 -212.127 97.1373ZM-217.63 97.3524C-209.55 130.607 -200.329 176.061 -195.568 200.099C-211.334 183.579 -222.491 171.922 -224.32 170.092C-228.653 165.762 -242.083 159.754 -271.7 147.08C-278.894 144.003 -286.179 140.882 -293.051 137.863L-294.756 100.381L-217.63 97.3524ZM-295.946 74.2019C-295.955 74.0272 -295.996 73.857 -296.072 73.6979L-315.527 31.5523C-299.813 30.7146 -273.948 29.7133 -242.901 28.6538C-236.652 42.9786 -231.533 54.3354 -228.958 59.2275C-226.279 64.3123 -222.458 77.712 -218.284 94.6755L-294.88 97.6838L-295.946 74.2019ZM-321.188 101.42L-297.457 100.488L-295.812 136.642C-306.111 132.079 -315.294 127.785 -321.563 124.244C-329.06 120.008 -336.445 113.892 -343.214 106.66L-321.188 101.42ZM-325.4 32.1504C-323.479 32.0093 -321.117 31.8637 -318.429 31.7114L-298.636 74.5894L-297.58 97.7891L-321.426 98.7255C-321.513 98.7277 -321.601 98.7411 -321.686 98.7613L-345.321 104.386C-357.31 90.8989 -367.066 73.9197 -371.459 57.6103C-372.363 54.257 -373.654 47.9894 -375.216 39.6163C-353.49 35.6784 -335.728 32.9008 -325.4 32.1504ZM-334.834 -5.13216L-324.371 18.5379C-325.07 18.585 -325.763 18.6298 -326.382 18.6768C-337.162 19.4608 -355.427 22.3034 -377.621 26.3174C-379.095 17.9354 -380.723 8.37057 -382.433 -1.92223L-334.834 -5.13216ZM-335.995 -7.76192L-382.879 -4.60127C-385.075 -17.871 -387.404 -32.2697 -389.737 -46.9081L-359.134 -60.1129L-335.995 -7.76192ZM-333.126 -7.95454L-356.653 -61.1837L-313.276 -79.8989L-286.567 -11.0928L-333.126 -7.95454ZM-248.672 15.337C-281.046 16.4592 -307.319 17.5075 -321.495 18.3587L-331.965 -5.32478L-259.583 -10.2035C-255.878 -1.472 -252.18 7.19009 -248.672 15.337ZM-236.145 -66.4521L-222.267 -36.6624L-258.263 -20.9667C-262.551 -31.0982 -266.755 -41.0931 -270.579 -50.2122L-236.145 -66.4521ZM-249.112 -94.2842L-237.286 -68.9005L-271.624 -52.7053C-276.212 -63.6477 -280.185 -73.1744 -282.994 -79.9146L-249.112 -94.2842ZM-250.255 -96.737L-284.032 -82.4099C-286.064 -87.2976 -287.279 -90.223 -287.358 -90.4112L-287.665 -91.1661L-255.522 -108.047L-250.255 -96.737ZM-219.916 -129.786L-254.264 -111.752L-278.287 -163.31L-239.664 -178.018L-219.916 -129.786ZM-217.511 -131.049L-227.507 -155.463L-193.818 -169.889L-184.906 -148.167L-217.511 -131.049ZM-175.244 -124.614L-208.922 -110.072L-216.487 -128.547L-183.882 -145.67L-175.244 -124.614ZM-172.763 -125.684L-181.477 -146.933L-175.497 -150.074L-166.086 -128.57L-172.763 -125.684ZM-156.625 -106.942L-163.703 -103.605L-171.736 -123.187L-165.006 -126.092L-156.625 -106.942ZM-154.18 -108.096L-162.522 -127.165L-146.371 -134.138L-138.222 -115.622L-154.18 -108.096ZM-137.135 -113.149L-126.558 -89.121L-142.877 -82.2665L-153.095 -105.621L-137.135 -113.149ZM-133.331 -117.93L-137.61 -127.653L-92.8772 -146.326L-89.0849 -138.795L-133.331 -117.93ZM-127.407 -104.472L-132.242 -115.457L-87.8701 -136.385L-81.953 -124.636L-127.407 -104.472ZM-119.641 -86.8272L-126.318 -101.999L-80.7359 -122.219L-73.483 -107.814L-119.641 -86.8272ZM-66.611 -94.1677L-113.887 -73.7546L-118.552 -84.3542L-72.2682 -105.399L-66.611 -94.1677ZM-64.1388 -95.2361L-69.8184 -106.512L-33.4617 -123.041L-26.2357 -111.602L-64.1388 -95.2361ZM-59.1407 -85.3174L-62.9218 -92.8192L-24.7765 -109.29L-20.8453 -103.065L-59.1407 -85.3174ZM-35.6336 -78.0262C-35.8353 -78.0329 -36.037 -78.0061 -36.232 -77.9165C-36.4517 -77.8179 -36.613 -77.6589 -36.7453 -77.4774L-51.5112 -70.1706L-57.9258 -82.9027L-19.3906 -100.762L-17.9158 -98.4259C-17.9136 -98.4259 -17.9158 -98.4259 -17.9136 -98.4259L-12.3192 -89.5645L-35.6336 -78.0262ZM-20.7668 -82.3718L-10.8691 -87.2685L3.47546 -64.5571L-8.15033 -59.1833L-20.7668 -82.3718ZM-21.9412 -49.8313L-9.31586 -55.6665L3.42615 -32.2473L-12.0817 -28.2086L-21.9412 -49.8313ZM-37.6149 -42.5849L-24.3933 -48.6979L-14.7376 -27.5187L-28.2528 -23.9974L-37.6149 -42.5849ZM-43.5298 9.18591L-44.6729 -20.727L-29.8487 -21.0473L-17.1381 8.46915C-25.4915 8.69537 -34.3246 8.93503 -43.5298 9.18591ZM-84.257 23.8288C-52.6206 22.9395 -22.988 22.1354 0.927063 21.4992L2.67084 90.1172L-72.6201 89.1472C-76.502 67.4662 -80.6821 43.9597 -84.257 23.8288ZM-141.185 25.464C-123.893 24.9555 -106.556 24.456 -89.7237 23.9811C-86.1689 44.0067 -81.9978 67.455 -78.1091 89.1718L-134.588 91.3894L-141.185 25.464ZM-143.894 25.5424L-137.294 91.4969L-212.782 94.4605C-217.182 76.5517 -221.265 62.2314 -224.172 56.712C-226.559 52.1738 -231.268 41.76 -237.085 28.4567C-208.694 27.5002 -176.423 26.5011 -143.894 25.5424ZM-172.238 -16.0925L-150.063 12.2122C-182.681 13.1798 -214.824 14.1811 -242.863 15.1376C-246.377 6.98624 -250.109 -1.75198 -253.863 -10.591L-172.238 -16.0925ZM-212.676 -16.0746L-254.982 -13.223C-255.726 -14.9747 -256.468 -16.7286 -257.21 -18.4803L-221.126 -34.2141L-212.676 -16.0746ZM-200.809 -83.12L-183.008 -39.6438L-214.855 -27.1536L-233.7 -67.6057L-200.809 -83.12ZM-206.614 -97.2992L-201.833 -85.6198L-234.841 -70.0541L-240.352 -81.8858L-206.614 -97.2992ZM-207.638 -99.8013L-241.493 -84.3363L-253.126 -109.306L-218.892 -127.284L-207.638 -99.8013ZM-199.385 -86.7757L-207.898 -107.572L-174.22 -122.114L-166.151 -102.449L-199.385 -86.7757ZM-159.113 -85.2906L-192.697 -70.4394L-198.359 -84.2736L-165.124 -99.9469L-159.113 -85.2906ZM-153.174 -77.9411L-162.677 -101.103L-155.54 -104.467L-145.369 -81.2182L-153.174 -77.9411ZM-137.619 -63.5065L-145.804 -59.9741L-152.149 -75.4413L-144.284 -78.743L-137.619 -63.5065ZM-135.135 -64.5795L-141.792 -79.7914L-125.468 -86.6458L-118.852 -71.6109L-135.135 -64.5795ZM-106.406 -43.3309L-134.528 -32.4893L-144.778 -57.472L-135.299 -61.5645C-135.297 -61.5667 -135.294 -61.5645 -135.292 -61.5667C-135.29 -61.5667 -135.29 -61.569 -135.288 -61.5712L-117.763 -69.1379L-106.406 -43.3309ZM-88.6478 -51.7914L-101.435 -45.4633L-112.8 -71.2816L-99.5788 -76.9891L-88.6478 -51.7914ZM-73.3664 -59.3536L-77.2192 -57.4473C-77.2215 -57.4473 -77.226 -57.4474 -77.2282 -57.4451C-77.235 -57.4429 -77.2372 -57.4384 -77.2439 -57.4361L-86.2227 -52.992L-97.0977 -78.0598L-83.495 -83.9331L-73.3664 -59.3536ZM-70.939 -60.5565L-81.0139 -85.0061L-65.394 -91.7507L-60.9763 -82.9789C-60.9763 -82.9744 -60.9763 -82.9744 -60.9741 -82.9744L-53.9251 -68.9744L-70.939 -60.5565ZM-47.2033 -55.6329L-70.2285 -44.4419C-70.2353 -44.4374 -70.2397 -44.433 -70.2465 -44.4285L-74.96 -55.5546L-52.7103 -66.5641L-47.2033 -55.6329ZM-61.2677 -23.0746C-61.2856 -23.1776 -61.2879 -23.2806 -61.3304 -23.3814L-64.7395 -31.4275L-40.0916 -41.5053L-31.1352 -23.7197L-61.2677 -23.0746ZM-46.6833 -2.5696L-46.2328 9.25986C-59.1182 9.61377 -72.6918 9.98785 -86.6418 10.3821C-87.4644 5.73633 -88.2354 1.39297 -88.937 -2.5696H-46.6833ZM-47.3759 -20.671L-46.7864 -5.27103H-89.4144C-90.4611 -11.1779 -91.3329 -16.1014 -91.9717 -19.7146L-47.3759 -20.671ZM-69.2065 -41.9757C-69.1549 -41.9936 -69.0989 -41.9869 -69.0474 -42.0115L-45.9885 -53.2182L-41.3086 -43.9245L-65.7929 -33.9139L-69.2065 -41.9757ZM-92.4469 -22.407C-92.8862 -24.8889 -93.1417 -26.3405 -93.1686 -26.4906C-93.2067 -26.7034 -93.2694 -26.9117 -93.3568 -27.111L-100.348 -42.9926L-77.3874 -54.3539L-64.1119 -23.0141L-92.4469 -22.407ZM-130.895 -18.879L-97.4428 -19.5958C-96.3266 -13.2947 -94.4372 -2.60542 -92.1084 10.5367C-109.981 11.0406 -128.396 11.5715 -146.705 12.1136L-168.977 -16.312L-130.895 -18.879ZM-133.501 -29.9894L-105.317 -40.8602L-98.438 -25.2317C-98.3371 -24.6649 -98.1578 -23.6547 -97.918 -22.2883L-130.061 -21.6006L-133.501 -29.9894ZM-174.713 -26.5197L-140.138 -39.0368L-132.923 -21.4505L-170.99 -18.8835L-172.238 -20.4762L-174.713 -26.5197ZM-191.673 -67.9395L-158.087 -82.7907L-155.155 -75.6451V-75.6429L-141.162 -41.5389L-175.739 -29.024L-191.673 -67.9395ZM-174.67 -19.28C-174.623 -19.1657 -174.56 -19.056 -174.484 -18.9597L-174.253 -18.664L-209.783 -16.2694L-213.712 -24.6985L-181.984 -37.1418L-174.67 -19.28ZM-33.8315 -75.9072L-23.1919 -81.1712L-10.6091 -58.0454L-23.062 -52.2886L-33.8315 -75.9072ZM-25.5139 -51.1552L-38.8319 -44.9974L-44.1618 -55.5792C-44.1641 -55.5859 -44.1641 -55.5949 -44.1663 -55.6061C-44.1708 -55.615 -44.182 -55.6195 -44.1865 -55.6307L-50.2964 -67.7603L-36.2544 -74.7088L-25.5139 -51.1552ZM298.076 572.468L253.888 565.102L270.719 487.531C286.798 493.794 306.974 498.261 329.818 503.299C351.998 508.193 376.51 513.605 401.843 521.622L381.214 621.387L246.284 600.152L253.315 567.746L297.63 575.133C297.706 575.144 297.78 575.151 297.854 575.151C298.502 575.151 299.076 574.685 299.186 574.024C299.309 573.287 298.811 572.593 298.076 572.468ZM555.697 621.972C554.554 623.248 553.461 624.527 552.416 625.811L554.2 620.218C554.698 620.802 555.207 621.385 555.697 621.972ZM554.814 600.486C551.591 596.996 548.27 593.548 544.84 590.143L556.818 552.579C559.803 556.926 562.814 561.386 565.826 565.936L554.814 600.486ZM1000.65 618.403L984.009 569.184L1001.42 562.358L1018.79 612.252L1000.65 618.403ZM1037.84 672.495L1021.1 678.892L1002.38 623.522L1020.48 617.382L1037.84 672.495ZM1030.33 639.634L1023.05 616.513L1050.54 607.185L1057.92 629.72L1030.33 639.634ZM1040.37 671.529L1031.14 642.214L1058.76 632.289L1068.14 660.923L1040.37 671.529ZM1043.23 680.615L1041.18 674.112L1068.98 663.494L1071.11 669.999L1043.23 680.615ZM1044.05 683.197L1071.95 672.569L1081.75 702.5L1053.32 712.665L1044.05 683.197ZM1025.01 690.451L1041.52 684.163L1050.78 713.574L1034.76 719.302L1025.01 690.451ZM1021.96 681.453L1038.66 675.077L1040.7 681.58L1024.14 687.888L1021.96 681.453ZM1022.48 691.412L1032.22 720.214L1023.99 723.155H1023.99L1013.8 726.797L1004.3 698.338L1022.48 691.412ZM657.118 -98.2243L763.299 -83.2634L753.421 -24.0333L640.619 -39.1421L639.573 -39.8297L657.118 -98.2243ZM663.295 -157.739L690.854 -155.232L689.796 -99.0778L658.133 -103.538L663.295 -157.739ZM658.164 -160.917L622.438 -164.163L625.638 -204.723L662.078 -202.01L658.164 -160.917ZM616.787 -126.975L566.223 -156.749L567.13 -166.477L619.531 -161.715L616.787 -126.975ZM622.225 -161.471L657.909 -158.227L652.906 -105.708L619.378 -125.449L622.225 -161.471ZM273.076 -171.044L356.719 -135.14L339.938 -86.4598L253.927 -124.504C260.991 -141.828 267.872 -158.492 273.076 -171.044ZM252.125 -182.981L260.184 -200.767L279.18 -192.748C278.034 -190.008 275.311 -183.49 271.624 -174.608L252.125 -182.981ZM270.589 -172.113C267.457 -164.566 263.726 -155.546 259.711 -145.786C256.928 -146.973 249.643 -150.085 239.23 -154.527L251.008 -180.52L270.589 -172.113ZM-348.035 -86.2717L-342.331 -70.3027L-357.745 -63.6544L-367.328 -85.3354L-369.577 -104.38C-361.685 -102.619 -353.939 -100.892 -346.569 -99.2502L-348.102 -86.8922C-348.129 -86.6816 -348.105 -86.471 -348.035 -86.2717ZM-502.165 -98.1146C-506.585 -107.133 -515.416 -119.876 -526.795 -134.577C-506.349 -132.398 -482.8 -129.772 -480.384 -129.17C-479.794 -129.022 -475.648 -128.084 -468.986 -126.587L-463.168 -94.0534L-497.465 -87.4566C-499.074 -91.4237 -500.647 -95.0144 -502.165 -98.1146ZM-494.479 -151.359L-507.271 -171.564L-492.041 -179.476L-481.502 -155.893L-494.479 -151.359ZM-487.731 -135.646C-496.389 -136.71 -509.758 -138.181 -520.642 -139.353L-495.613 -148.098L-487.731 -135.646ZM-492.996 -149.016L-480.395 -153.418L-471.093 -132.599C-475.748 -133.645 -478.606 -134.295 -479.072 -134.412C-479.751 -134.582 -481.607 -134.857 -484.252 -135.202L-492.996 -149.016ZM-530.93 -159.278L-509.678 -170.314L-497.099 -150.443L-521.304 -141.985L-530.93 -159.278ZM910.747 -85.8326L1046.78 -87.3715L1046.46 -71.3577L909.503 -73.4589C909.965 -78.033 910.379 -82.177 910.747 -85.8326ZM911.426 -92.6019C912.439 -102.711 913.15 -117.643 913.638 -134.884L941.018 -132.037L939.31 -89.1926C939.308 -89.0739 939.342 -88.9664 939.367 -88.8544L911.018 -88.5363C911.164 -89.9744 911.301 -91.3453 911.426 -92.6019ZM975.093 -128.496L974.36 -89.2509L941.964 -88.8858C941.978 -88.953 942.011 -89.0134 942.014 -89.0851L943.713 -131.757L975.093 -128.496ZM1010.81 -124.782V-89.663L977.063 -89.2822L977.792 -128.216L1010.81 -124.782ZM914.152 -157.932L1048.13 -153.611L1047.52 -123.68L913.715 -137.592C913.889 -144.113 914.033 -150.934 914.152 -157.932ZM914.452 -180.764L995.828 -177.321C995.83 -177.321 995.83 -177.321 995.83 -177.321H995.841L1043.64 -175.298L1135.19 -168.343C1135.17 -168.251 1135.13 -168.166 1135.13 -168.07V-153.51L1050.67 -156.234C1050.44 -156.628 1050.04 -156.91 1049.55 -156.921C1049.02 -156.903 1048.64 -156.661 1048.41 -156.305L914.194 -160.633C914.302 -167.243 914.385 -173.986 914.452 -180.764ZM914.631 -239.333L945.107 -236.244V-182.171L914.474 -183.468C914.647 -202.781 914.669 -222.228 914.631 -239.333ZM947.81 -235.969L965.173 -234.21L964.425 -181.353L947.81 -182.056V-235.969ZM967.874 -233.937L996.234 -231.063L994.568 -180.078L967.128 -181.239L967.874 -233.937ZM998.93 -230.79L1045.62 -226.059L1042.46 -178.051L997.271 -179.962L998.93 -230.79ZM1135.13 -114.572L1099.44 -118.284L1100.46 -151.924L1135.13 -150.806V-114.572ZM1096.74 -118.564L1050.22 -123.4L1050.83 -153.523L1097.76 -152.011L1096.74 -118.564ZM1095.89 -90.6218L1049.54 -90.0998L1050.16 -120.692L1096.66 -115.855L1095.89 -90.6218ZM1095.21 -68.3024L1049.16 -71.2502L1049.49 -87.4029L1095.81 -87.927L1095.21 -68.3024ZM1046.84 -90.0685L1013.51 -89.6922V-124.502L1047.47 -120.972L1046.84 -90.0685ZM-524.603 -252.334L-514.694 -230.167L-535.614 -216.337L-536 -216.947V-211.891L-524.065 -193.037L-536 -185.734V-182.567L-522.619 -190.754L-511.13 -172.606L-532.246 -161.639L-536 -168.386V-162.835L-534.644 -160.396L-536 -159.69V-156.646L-533.328 -158.032L-523.895 -141.08L-526.914 -140.025C-528.55 -140.197 -530.065 -140.359 -531.432 -140.504C-532.916 -142.379 -534.449 -144.29 -536 -146.216V-124.446C-535.935 -124.363 -535.866 -124.273 -535.801 -124.19L-536 -124.029V-120.555L-534.16 -122.042C-524.991 -109.975 -517.955 -99.6221 -514.304 -92.1718C-511.309 -86.0611 -508.075 -77.912 -504.7 -68.3898H-513.445L-522.648 -95.4714C-522.695 -95.6102 -522.767 -95.7402 -522.855 -95.8544L-536 -113.076V-108.622L-525.138 -94.3939L-515.691 -66.6045C-515.505 -66.0557 -514.992 -65.6883 -514.414 -65.6883H-503.749C-502.653 -62.5322 -501.542 -59.2304 -500.419 -55.8166L-536 -51.9347V-49.2153L-499.563 -53.1914C-497.375 -46.449 -495.152 -39.2854 -492.915 -31.8509L-536 -25.431V-22.6982L-492.135 -29.2345C-485.014 -5.37631 -477.808 21.002 -471.297 44.9341C-493.89 49.6874 -516.173 54.5011 -536 58.8467V72.7011C-515.263 68.154 -491.644 63.049 -467.736 58.0224C-457.607 95.1571 -451.484 116.744 -447.669 123.227C-438.213 139.292 -286.936 219.347 -237.331 245.295L-174.226 378.083C-176.625 377.957 -179.021 377.829 -181.428 377.738C-182.625 377.695 -183.804 377.964 -184.857 378.524C-254.67 415.603 -361.573 471.777 -369.924 474.562C-375.115 476 -400.034 466.014 -423.256 453.181C-426.522 451.378 -430.633 452.56 -432.441 455.822C-433.098 457.011 -433.351 458.31 -433.26 459.572L-536 513.511V519.612L-430.736 464.352C-430.442 464.587 -430.14 464.813 -429.799 465.001C-414.952 473.209 -378.974 491.83 -365.668 487.381C-353.845 483.445 -204.224 404.102 -180.13 391.31C-85.1895 395.279 2.15979 426.796 13.6511 431.085L66.1185 482.567L107.948 626.458L86.5191 727.708C76.8635 752.42 61.9473 790.18 59.8719 794.326C58.3052 797.46 54.0085 813.01 43.8441 850.427C42.7189 854.566 41.5714 858.784 40.4261 863H54.4344C55.2502 859.992 56.0706 856.977 56.8887 853.966C63.3101 830.325 70.59 803.532 71.9617 800.367C74.853 794.59 94.7628 743.742 98.8106 733.387L130.252 743.068L127.11 816.646C127.081 817.284 127.504 817.853 128.125 818.012L182.181 831.873L175.428 863H189.26L209.131 771.411L272.254 788.549L253.108 863H255.899L260.099 846.664L322.666 862.919L322.646 863H328.22L342.141 807.522L449.091 836.557L439.854 863H442.716L451.704 837.269L478.322 844.493L472.584 863H478.246L483.542 845.911L546.483 863H598.043L575.728 856.941L613.179 759.194L637.091 764.422C645.848 783.827 652.774 798.042 660.386 805.954C676.857 823.074 729.136 838.855 768.9 847.166C794.897 852.595 819.946 856 842.431 857.351L839.894 863H845.822L848.214 857.673C871.755 858.733 892.175 857.416 907.403 853.61C928.339 848.38 951.488 844.495 973.305 841.628L974.703 863H988.248L986.742 839.966C1021.33 835.939 1050.34 834.465 1058.08 834.12C1063.39 837.424 1080.43 848.366 1097.83 863H1118.22C1093.38 839.552 1065.03 822.505 1063.32 821.486C1062.2 820.819 1060.91 820.474 1059.61 820.536C1059.08 820.557 1026.36 821.791 985.859 826.477L984.079 799.281L1070.79 797.603L1145 854.284V837.285L1081.36 788.677L1108.45 779.73C1108.48 779.721 1108.5 779.701 1108.52 779.692C1108.55 779.683 1108.57 779.688 1108.59 779.677L1131.76 769.131L1145 808.922V800.361L1134.23 768.006L1145 763.105V760.139L1133.38 765.428L1110.03 695.253L1125.15 689.848L1145 745.033V737.047L1127.7 688.977L1145 683.348V680.505L1125.54 686.837C1125.53 686.84 1125.53 686.844 1125.52 686.846C1125.52 686.849 1125.51 686.846 1125.5 686.851L1109.18 692.688L1098.64 661.017C1098.64 661.015 1098.64 661.013 1098.64 661.01C1098.64 661.006 1098.64 660.999 1098.64 660.995L1076.65 598.331L1116.41 584.844L1145 670.79V662.229L1142.6 655.027C1142.7 655.009 1142.8 655.007 1142.9 654.969L1145 654.111V651.195L1141.88 652.469C1141.84 652.485 1141.81 652.516 1141.78 652.536L1135.25 632.927L1145 627.144V624.012L1134.38 630.304L1118.97 583.977L1141.24 576.419L1145 586.378V578.719L1143.81 575.55L1145 575.144V569.439L1141.9 570.492L1121.14 515.444L1145 506.09V503.189L1040.43 544.17C1040.42 544.073 1040.42 543.979 1040.38 543.885L1034.38 527.708L1127.32 469.896L1145 496.585V483.764L1143.71 484.857L1131.68 466.688L1145 454.919V451.34L1130.18 464.428L1113.5 439.261L1137.87 418.976L1145 429.267V424.525L1139.95 417.242L1145 413.04V409.525L1138.41 415.013L1122.76 392.437L1145 373.992V370.484L1121.21 390.208L1102.21 362.79C1112.89 355.053 1123.25 347.442 1132.84 340.276L1145 357.125V352.506L1135.01 338.656C1138.47 336.065 1141.78 333.554 1145 331.103V324.376C1140.84 327.58 1136.47 330.899 1131.89 334.338L1115.38 311.458L1145 290.434V287.118L1113.8 309.27L1100.33 290.599L1100.48 290.525L1145 258.296V254.974L1099.07 288.227L1098.74 288.395L1077.03 258.296L1131.81 209.455C1136.13 214.988 1140.57 220.633 1145 226.233V221.887C1141.2 217.071 1137.44 212.296 1133.83 207.659L1145 197.698V194.078L1132.16 205.522C1128.8 201.21 1125.57 197.026 1122.5 193.023C1122.49 193.007 1122.49 192.991 1122.48 192.98C1122.47 192.969 1122.46 192.965 1122.45 192.958C1117.26 186.173 1112.55 179.921 1108.58 174.5L1126.08 159.25L1145 182.829V178.51L1128.12 157.474L1145 142.762V135.591L1139.9 140.038C1134.37 122.55 1122.66 85.393 1117.63 68.9872C1124.03 66.7763 1129.68 64.823 1134.55 63.143C1136.43 63.3648 1140.02 63.7859 1145 64.3728V50.7693C1139.34 50.104 1135.67 49.6717 1134.59 49.5463C1134.52 49.5373 1134.45 49.5485 1134.37 49.5418C1134.28 49.5328 1134.2 49.5082 1134.11 49.5059L1075.16 46.865L1064.64 12.3219L1145 21.1184V18.399L1063.78 9.51074L1056.33 -14.9478L1145 -10.9987V-13.7024L950.706 -22.3577C950.697 -22.3577 950.688 -22.3533 950.679 -22.3533C950.667 -22.3533 950.656 -22.36 950.645 -22.36L904.335 -22.4362C906.222 -41.008 907.894 -57.519 909.232 -70.7619L1047.69 -68.6384L1096.46 -65.5203C1096.46 -65.5203 1096.47 -65.5158 1096.48 -65.5158H1096.52C1096.52 -65.5158 1096.52 -65.5158 1096.52 -65.5158L1145 -62.4157V-65.1149L1097.91 -68.1299L1098.51 -87.9584L1145 -88.4826V-91.1773L1098.6 -90.6531L1099.36 -115.575L1145 -110.829V-113.546L1137.84 -114.292V-168.07C1137.84 -168.094 1137.82 -168.117 1137.82 -168.144L1145 -167.597V-170.305L1045.16 -177.892L1048.4 -227.183C1048.4 -227.199 1048.4 -227.212 1048.4 -227.228C1048.4 -227.244 1048.41 -227.255 1048.41 -227.271V-257H1045.7V-228.765L999.017 -233.496L999.786 -257H997.079L996.321 -233.769L967.91 -236.65L968.199 -257H965.494L965.211 -236.923L914.625 -242.05C914.609 -247.301 914.589 -252.305 914.564 -257H901.033C901.053 -252.71 901.073 -248.183 901.087 -243.421L839.813 -249.63L840.907 -257H838.173L836.924 -248.575C836.924 -248.573 836.922 -248.569 836.922 -248.566C836.92 -248.564 836.922 -248.562 836.922 -248.56L833.945 -228.505C820.128 -229.466 805.362 -230.485 790.547 -231.5L794.285 -257H788.821L785.136 -231.872C740.587 -234.92 696.65 -237.85 678.065 -238.854C676.005 -238.966 673.663 -239.149 671.072 -239.394L672.749 -257H667.316L665.691 -239.954C640.864 -242.74 599.206 -249.857 560.104 -257H530.343C543.603 -254.502 557.836 -251.866 572.142 -249.297L569.771 -223.864L498.048 -229.251L506.184 -257H503.367L495.493 -230.145L453.842 -257H448.855L494.699 -227.441L487.554 -203.072L423.353 -240.876C423.255 -240.932 423.156 -240.984 423.057 -241.027L386.176 -257H372.583L420.751 -236.137L531.892 -170.693L512.043 -137.63L348.872 -211.989L340.803 -257H335.309L342.972 -214.247L216.436 -256.868C216.458 -256.913 216.478 -256.955 216.496 -257H207.585L210.169 -256.129C201.959 -238.072 189.493 -210.569 176.383 -181.357C108.816 -210.209 24.739 -246.127 20.6105 -247.984C18.1719 -249.079 14.3033 -252.753 10.3676 -257H6.70074C11.2641 -251.926 16.2511 -246.983 19.5032 -245.52C21.8656 -244.456 50.27 -232.3 86.7769 -216.696C84.4414 -211.692 75.7786 -193.18 73.9901 -190.23C72.6004 -187.941 72.7237 -179.205 73.4947 -161.697C73.7211 -156.601 73.9139 -152.197 73.7996 -150.92C73.6852 -149.652 72.5063 -141.241 70.9351 -130.256L33.0432 -128.399L24.4432 -167.075C24.3849 -167.328 24.2593 -167.559 24.0733 -167.74L-65.9073 -257H-69.7444L-44.442 -231.901L-80.8233 -203.079L-84.3781 -208.708L-123.01 -257H-126.468L-115.01 -242.68L-140.66 -217.175L-152.68 -241.004C-152.68 -241.006 -152.68 -241.006 -152.68 -241.009C-152.683 -241.009 -152.683 -241.011 -152.685 -241.011L-160.747 -257H-163.771L-155.706 -241.027L-181.849 -228.164L-194.542 -257H-200.448L-199.343 -254.491L-242.412 -239.443L-249.224 -257H-252.122L-252.086 -256.904L-282.593 -246.445L-287.34 -257H-290.303L-276.983 -227.363L-303.767 -218.002L-321.933 -257H-324.916L-317.123 -240.272L-343.907 -228.879L-355.391 -257H-361.232L-340.116 -205.299L-409.504 -181.053L-378.286 -257H-381.211L-404.649 -199.979L-432.636 -257H-435.647L-406.021 -196.641L-412.052 -181.962L-449.957 -257H-465.1L-447.644 -222.446L-501.206 -206.609L-522.707 -254.717C-522.707 -254.72 -522.707 -254.722 -522.707 -254.724C-522.709 -254.724 -522.709 -254.726 -522.711 -254.726L-523.726 -257H-526.687L-525.706 -254.803L-536 -249.933V-246.942L-524.603 -252.334Z" fill="#CAD1E1"/>
</g>
<defs>
<clipPath id="clip0_72_22402">
<rect width="610" height="606" rx="20" fill="white"/>
</clipPath>
</defs>
</svg>
